<svg id="visual" viewBox="0 0 900 600" width="900" height="600" xmlns="http://www.w3.org/2000/svg" xmlns:xlink="http://www.w3.org/1999/xlink" version="1.1"><rect width="900" height="600" fill="#001829"></rect><g><g transform="translate(479 518)"><path d="M0 -13.1L10.3 -8.2L12.8 2.9L5.7 11.8L-5.7 11.8L-12.8 2.9L-10.3 -8.2Z" fill="#297EA6"></path></g><g transform="translate(857 515)"><path d="M0 -8L6.3 -5L7.8 1.8L3.5 7.2L-3.5 7.2L-7.8 1.8L-6.3 -5Z" fill="#297EA6"></path></g><g transform="translate(514 105)"><path d="M0 -12L9.4 -7.5L11.7 2.7L5.2 10.8L-5.2 10.8L-11.7 2.7L-9.4 -7.5Z" fill="#297EA6"></path></g><g transform="translate(402 16)"><path d="M0 -8L6.3 -5L7.8 1.8L3.5 7.2L-3.5 7.2L-7.8 1.8L-6.3 -5Z" fill="#297EA6"></path></g><g transform="translate(579 368)"><path d="M0 -4L3.1 -2.5L3.9 0.9L1.7 3.6L-1.7 3.6L-3.9 0.9L-3.1 -2.5Z" fill="#297EA6"></path></g><g transform="translate(58 191)"><path d="M0 -10L7.8 -6.2L9.7 2.2L4.3 9L-4.3 9L-9.7 2.2L-7.8 -6.2Z" fill="#297EA6"></path></g><g transform="translate(261 597)"><path d="M0 -6L4.7 -3.7L5.8 1.3L2.6 5.4L-2.6 5.4L-5.8 1.3L-4.7 -3.7Z" fill="#297EA6"></path></g><g transform="translate(637 128)"><path d="M0 -3L2.3 -1.9L2.9 0.7L1.3 2.7L-1.3 2.7L-2.9 0.7L-2.3 -1.9Z" fill="#297EA6"></path></g><g transform="translate(555 351)"><path d="M0 -3L2.3 -1.9L2.9 0.7L1.3 2.7L-1.3 2.7L-2.9 0.7L-2.3 -1.9Z" fill="#297EA6"></path></g><g transform="translate(649 535)"><path d="M0 -4L3.1 -2.5L3.9 0.9L1.7 3.6L-1.7 3.6L-3.9 0.9L-3.1 -2.5Z" fill="#297EA6"></path></g><g transform="translate(80 32)"><path d="M0 -6L4.7 -3.7L5.8 1.3L2.6 5.4L-2.6 5.4L-5.8 1.3L-4.7 -3.7Z" fill="#297EA6"></path></g><g transform="translate(599 580)"><path d="M0 -3L2.3 -1.9L2.9 0.7L1.3 2.7L-1.3 2.7L-2.9 0.7L-2.3 -1.9Z" fill="#297EA6"></path></g><g transform="translate(677 269)"><path d="M0 -8L6.3 -5L7.8 1.8L3.5 7.2L-3.5 7.2L-7.8 1.8L-6.3 -5Z" fill="#297EA6"></path></g><g transform="translate(384 60)"><path d="M0 -12L9.4 -7.5L11.7 2.7L5.2 10.8L-5.2 10.8L-11.7 2.7L-9.4 -7.5Z" fill="#297EA6"></path></g><g transform="translate(285 78)"><path d="M0 -9L7 -5.6L8.8 2L3.9 8.1L-3.9 8.1L-8.8 2L-7 -5.6Z" fill="#297EA6"></path></g><g transform="translate(99 442)"><path d="M0 -6L4.7 -3.7L5.8 1.3L2.6 5.4L-2.6 5.4L-5.8 1.3L-4.7 -3.7Z" fill="#297EA6"></path></g><g transform="translate(453 356)"><path d="M0 -12L9.4 -7.5L11.7 2.7L5.2 10.8L-5.2 10.8L-11.7 2.7L-9.4 -7.5Z" fill="#297EA6"></path></g><g transform="translate(623 184)"><path d="M0 -1L0.8 -0.6L1 0.2L0.4 0.9L-0.4 0.9L-1 0.2L-0.8 -0.6Z" fill="#297EA6"></path></g><g transform="translate(253 546)"><path d="M0 -12L9.4 -7.5L11.7 2.7L5.2 10.8L-5.2 10.8L-11.7 2.7L-9.4 -7.5Z" fill="#297EA6"></path></g><g transform="translate(772 437)"><path d="M0 -12L9.4 -7.5L11.7 2.7L5.2 10.8L-5.2 10.8L-11.7 2.7L-9.4 -7.5Z" fill="#297EA6"></path></g><g transform="translate(82 472)"><path d="M0 -10L7.8 -6.2L9.7 2.2L4.3 9L-4.3 9L-9.7 2.2L-7.8 -6.2Z" fill="#297EA6"></path></g><g transform="translate(139 562)"><path d="M0 -3L2.3 -1.9L2.9 0.7L1.3 2.7L-1.3 2.7L-2.9 0.7L-2.3 -1.9Z" fill="#297EA6"></path></g><g transform="translate(249 188)"><path d="M0 -9L7 -5.6L8.8 2L3.9 8.1L-3.9 8.1L-8.8 2L-7 -5.6Z" fill="#297EA6"></path></g><g transform="translate(507 184)"><path d="M0 -9L7 -5.6L8.8 2L3.9 8.1L-3.9 8.1L-8.8 2L-7 -5.6Z" fill="#297EA6"></path></g><g transform="translate(113 325)"><path d="M0 -6L4.7 -3.7L5.8 1.3L2.6 5.4L-2.6 5.4L-5.8 1.3L-4.7 -3.7Z" fill="#297EA6"></path></g><g transform="translate(733 511)"><path d="M0 -2L1.6 -1.2L1.9 0.4L0.9 1.8L-0.9 1.8L-1.9 0.4L-1.6 -1.2Z" fill="#297EA6"></path></g><g transform="translate(891 285)"><path d="M0 -4L3.1 -2.5L3.9 0.9L1.7 3.6L-1.7 3.6L-3.9 0.9L-3.1 -2.5Z" fill="#297EA6"></path></g><g transform="translate(30 586)"><path d="M0 -7L5.5 -4.4L6.8 1.6L3 6.3L-3 6.3L-6.8 1.6L-5.5 -4.4Z" fill="#297EA6"></path></g><g transform="translate(774 350)"><path d="M0 -7L5.5 -4.4L6.8 1.6L3 6.3L-3 6.3L-6.8 1.6L-5.5 -4.4Z" fill="#297EA6"></path></g><g transform="translate(355 253)"><path d="M0 -3L2.3 -1.9L2.9 0.7L1.3 2.7L-1.3 2.7L-2.9 0.7L-2.3 -1.9Z" fill="#297EA6"></path></g><g transform="translate(417 582)"><path d="M0 -3L2.3 -1.9L2.9 0.7L1.3 2.7L-1.3 2.7L-2.9 0.7L-2.3 -1.9Z" fill="#297EA6"></path></g><g transform="translate(570 21)"><path d="M0 -5L3.9 -3.1L4.9 1.1L2.2 4.5L-2.2 4.5L-4.9 1.1L-3.9 -3.1Z" fill="#297EA6"></path></g><g transform="translate(733 6)"><path d="M0 -1L0.8 -0.6L1 0.2L0.4 0.9L-0.4 0.9L-1 0.2L-0.8 -0.6Z" fill="#297EA6"></path></g><g transform="translate(526 21)"><path d="M0 -1L0.8 -0.6L1 0.2L0.4 0.9L-0.4 0.9L-1 0.2L-0.8 -0.6Z" fill="#297EA6"></path></g><g transform="translate(705 566)"><path d="M0 -9L7 -5.6L8.8 2L3.9 8.1L-3.9 8.1L-8.8 2L-7 -5.6Z" fill="#297EA6"></path></g><g transform="translate(340 536)"><path d="M0 -6L4.7 -3.7L5.8 1.3L2.6 5.4L-2.6 5.4L-5.8 1.3L-4.7 -3.7Z" fill="#297EA6"></path></g><g transform="translate(6 464)"><path d="M0 -12L9.4 -7.5L11.7 2.7L5.2 10.8L-5.2 10.8L-11.7 2.7L-9.4 -7.5Z" fill="#297EA6"></path></g><g transform="translate(792 49)"><path d="M0 -12L9.4 -7.5L11.7 2.7L5.2 10.8L-5.2 10.8L-11.7 2.7L-9.4 -7.5Z" fill="#297EA6"></path></g><g transform="translate(640 404)"><path d="M0 -9L7 -5.6L8.8 2L3.9 8.1L-3.9 8.1L-8.8 2L-7 -5.6Z" fill="#297EA6"></path></g><g transform="translate(558 577)"><path d="M0 -1L0.8 -0.6L1 0.2L0.4 0.9L-0.4 0.9L-1 0.2L-0.8 -0.6Z" fill="#297EA6"></path></g><g transform="translate(335 45)"><path d="M0 -10L7.8 -6.2L9.7 2.2L4.3 9L-4.3 9L-9.7 2.2L-7.8 -6.2Z" fill="#297EA6"></path></g><g transform="translate(255 4)"><path d="M0 -7L5.5 -4.4L6.8 1.6L3 6.3L-3 6.3L-6.8 1.6L-5.5 -4.4Z" fill="#297EA6"></path></g><g transform="translate(404 503)"><path d="M0 -6L4.7 -3.7L5.8 1.3L2.6 5.4L-2.6 5.4L-5.8 1.3L-4.7 -3.7Z" fill="#297EA6"></path></g><g transform="translate(23 315)"><path d="M0 -3L2.3 -1.9L2.9 0.7L1.3 2.7L-1.3 2.7L-2.9 0.7L-2.3 -1.9Z" fill="#297EA6"></path></g><g transform="translate(413 547)"><path d="M0 -3L2.3 -1.9L2.9 0.7L1.3 2.7L-1.3 2.7L-2.9 0.7L-2.3 -1.9Z" fill="#297EA6"></path></g><g transform="translate(22 113)"><path d="M0 -4L3.1 -2.5L3.9 0.9L1.7 3.6L-1.7 3.6L-3.9 0.9L-3.1 -2.5Z" fill="#297EA6"></path></g><g transform="translate(746 555)"><path d="M0 -8L6.3 -5L7.8 1.8L3.5 7.2L-3.5 7.2L-7.8 1.8L-6.3 -5Z" fill="#297EA6"></path></g><g transform="translate(242 467)"><path d="M0 -8L6.3 -5L7.8 1.8L3.5 7.2L-3.5 7.2L-7.8 1.8L-6.3 -5Z" fill="#297EA6"></path></g><g transform="translate(645 97)"><path d="M0 -8L6.3 -5L7.8 1.8L3.5 7.2L-3.5 7.2L-7.8 1.8L-6.3 -5Z" fill="#297EA6"></path></g><g transform="translate(244 252)"><path d="M0 -11L8.6 -6.9L10.7 2.4L4.8 9.9L-4.8 9.9L-10.7 2.4L-8.6 -6.9Z" fill="#297EA6"></path></g><g transform="translate(447 23)"><path d="M0 -3L2.3 -1.9L2.9 0.7L1.3 2.7L-1.3 2.7L-2.9 0.7L-2.3 -1.9Z" fill="#297EA6"></path></g><g transform="translate(764 497)"><path d="M0 -6L4.7 -3.7L5.8 1.3L2.6 5.4L-2.6 5.4L-5.8 1.3L-4.7 -3.7Z" fill="#297EA6"></path></g><g transform="translate(402 282)"><path d="M0 -9L7 -5.6L8.8 2L3.9 8.1L-3.9 8.1L-8.8 2L-7 -5.6Z" fill="#297EA6"></path></g><g transform="translate(200 244)"><path d="M0 -2L1.6 -1.2L1.9 0.4L0.9 1.8L-0.9 1.8L-1.9 0.4L-1.6 -1.2Z" fill="#297EA6"></path></g><g transform="translate(525 483)"><path d="M0 -2L1.6 -1.2L1.9 0.4L0.9 1.8L-0.9 1.8L-1.9 0.4L-1.6 -1.2Z" fill="#297EA6"></path></g><g transform="translate(860 135)"><path d="M0 -8L6.3 -5L7.8 1.8L3.5 7.2L-3.5 7.2L-7.8 1.8L-6.3 -5Z" fill="#297EA6"></path></g><g transform="translate(791 518)"><path d="M0 -10L7.8 -6.2L9.7 2.2L4.3 9L-4.3 9L-9.7 2.2L-7.8 -6.2Z" fill="#297EA6"></path></g><g transform="translate(438 84)"><path d="M0 -4L3.1 -2.5L3.9 0.9L1.7 3.6L-1.7 3.6L-3.9 0.9L-3.1 -2.5Z" fill="#297EA6"></path></g><g transform="translate(687 527)"><path d="M0 -4L3.1 -2.5L3.9 0.9L1.7 3.6L-1.7 3.6L-3.9 0.9L-3.1 -2.5Z" fill="#297EA6"></path></g><g transform="translate(865 106)"><path d="M0 -3L2.3 -1.9L2.9 0.7L1.3 2.7L-1.3 2.7L-2.9 0.7L-2.3 -1.9Z" fill="#297EA6"></path></g><g transform="translate(217 174)"><path d="M0 -1L0.8 -0.6L1 0.2L0.4 0.9L-0.4 0.9L-1 0.2L-0.8 -0.6Z" fill="#297EA6"></path></g><g transform="translate(728 226)"><path d="M0 -8L6.3 -5L7.8 1.8L3.5 7.2L-3.5 7.2L-7.8 1.8L-6.3 -5Z" fill="#297EA6"></path></g><g transform="translate(391 458)"><path d="M0 -5L3.9 -3.1L4.9 1.1L2.2 4.5L-2.2 4.5L-4.9 1.1L-3.9 -3.1Z" fill="#297EA6"></path></g><g transform="translate(672 110)"><path d="M0 -5L3.9 -3.1L4.9 1.1L2.2 4.5L-2.2 4.5L-4.9 1.1L-3.9 -3.1Z" fill="#297EA6"></path></g><g transform="translate(897 45)"><path d="M0 -10L7.8 -6.2L9.7 2.2L4.3 9L-4.3 9L-9.7 2.2L-7.8 -6.2Z" fill="#297EA6"></path></g><g transform="translate(896 237)"><path d="M0 -5L3.9 -3.1L4.9 1.1L2.2 4.5L-2.2 4.5L-4.9 1.1L-3.9 -3.1Z" fill="#297EA6"></path></g><g transform="translate(271 445)"><path d="M0 -4L3.1 -2.5L3.9 0.9L1.7 3.6L-1.7 3.6L-3.9 0.9L-3.1 -2.5Z" fill="#297EA6"></path></g><g transform="translate(99 95)"><path d="M0 -9L7 -5.6L8.8 2L3.9 8.1L-3.9 8.1L-8.8 2L-7 -5.6Z" fill="#297EA6"></path></g><g transform="translate(683 334)"><path d="M0 -12L9.4 -7.5L11.7 2.7L5.2 10.8L-5.2 10.8L-11.7 2.7L-9.4 -7.5Z" fill="#297EA6"></path></g><g transform="translate(666 383)"><path d="M0 -6L4.7 -3.7L5.8 1.3L2.6 5.4L-2.6 5.4L-5.8 1.3L-4.7 -3.7Z" fill="#297EA6"></path></g><g transform="translate(579 177)"><path d="M0 -11L8.6 -6.9L10.7 2.4L4.8 9.9L-4.8 9.9L-10.7 2.4L-8.6 -6.9Z" fill="#297EA6"></path></g><g transform="translate(250 225)"><path d="M0 -12L9.4 -7.5L11.7 2.7L5.2 10.8L-5.2 10.8L-11.7 2.7L-9.4 -7.5Z" fill="#297EA6"></path></g><g transform="translate(106 555)"><path d="M0 -2L1.6 -1.2L1.9 0.4L0.9 1.8L-0.9 1.8L-1.9 0.4L-1.6 -1.2Z" fill="#297EA6"></path></g><g transform="translate(560 533)"><path d="M0 -6L4.7 -3.7L5.8 1.3L2.6 5.4L-2.6 5.4L-5.8 1.3L-4.7 -3.7Z" fill="#297EA6"></path></g><g transform="translate(756 233)"><path d="M0 -12L9.4 -7.5L11.7 2.7L5.2 10.8L-5.2 10.8L-11.7 2.7L-9.4 -7.5Z" fill="#297EA6"></path></g><g transform="translate(158 260)"><path d="M0 -3L2.3 -1.9L2.9 0.7L1.3 2.7L-1.3 2.7L-2.9 0.7L-2.3 -1.9Z" fill="#297EA6"></path></g><g transform="translate(84 308)"><path d="M0 -11L8.6 -6.9L10.7 2.4L4.8 9.9L-4.8 9.9L-10.7 2.4L-8.6 -6.9Z" fill="#297EA6"></path></g><g transform="translate(79 169)"><path d="M0 -8L6.3 -5L7.8 1.8L3.5 7.2L-3.5 7.2L-7.8 1.8L-6.3 -5Z" fill="#297EA6"></path></g><g transform="translate(444 461)"><path d="M0 -9L7 -5.6L8.8 2L3.9 8.1L-3.9 8.1L-8.8 2L-7 -5.6Z" fill="#297EA6"></path></g><g transform="translate(59 60)"><path d="M0 -10L7.8 -6.2L9.7 2.2L4.3 9L-4.3 9L-9.7 2.2L-7.8 -6.2Z" fill="#297EA6"></path></g><g transform="translate(334 302)"><path d="M0 -7L5.5 -4.4L6.8 1.6L3 6.3L-3 6.3L-6.8 1.6L-5.5 -4.4Z" fill="#297EA6"></path></g><g transform="translate(639 311)"><path d="M0 -12L9.4 -7.5L11.7 2.7L5.2 10.8L-5.2 10.8L-11.7 2.7L-9.4 -7.5Z" fill="#297EA6"></path></g><g transform="translate(182 579)"><path d="M0 -3L2.3 -1.9L2.9 0.7L1.3 2.7L-1.3 2.7L-2.9 0.7L-2.3 -1.9Z" fill="#297EA6"></path></g><g transform="translate(75 587)"><path d="M0 -7L5.5 -4.4L6.8 1.6L3 6.3L-3 6.3L-6.8 1.6L-5.5 -4.4Z" fill="#297EA6"></path></g><g transform="translate(122 49)"><path d="M0 -2L1.6 -1.2L1.9 0.4L0.9 1.8L-0.9 1.8L-1.9 0.4L-1.6 -1.2Z" fill="#297EA6"></path></g><g transform="translate(154 431)"><path d="M0 -6L4.7 -3.7L5.8 1.3L2.6 5.4L-2.6 5.4L-5.8 1.3L-4.7 -3.7Z" fill="#297EA6"></path></g><g transform="translate(104 177)"><path d="M0 -8L6.3 -5L7.8 1.8L3.5 7.2L-3.5 7.2L-7.8 1.8L-6.3 -5Z" fill="#297EA6"></path></g><g transform="translate(300 50)"><path d="M0 -1L0.8 -0.6L1 0.2L0.4 0.9L-0.4 0.9L-1 0.2L-0.8 -0.6Z" fill="#297EA6"></path></g><g transform="translate(530 56)"><path d="M0 -7L5.5 -4.4L6.8 1.6L3 6.3L-3 6.3L-6.8 1.6L-5.5 -4.4Z" fill="#297EA6"></path></g><g transform="translate(513 373)"><path d="M0 -10L7.8 -6.2L9.7 2.2L4.3 9L-4.3 9L-9.7 2.2L-7.8 -6.2Z" fill="#297EA6"></path></g><g transform="translate(871 587)"><path d="M0 -12L9.4 -7.5L11.7 2.7L5.2 10.8L-5.2 10.8L-11.7 2.7L-9.4 -7.5Z" fill="#297EA6"></path></g><g transform="translate(272 482)"><path d="M0 -6L4.7 -3.7L5.8 1.3L2.6 5.4L-2.6 5.4L-5.8 1.3L-4.7 -3.7Z" fill="#297EA6"></path></g><g transform="translate(782 150)"><path d="M0 -12L9.4 -7.5L11.7 2.7L5.2 10.8L-5.2 10.8L-11.7 2.7L-9.4 -7.5Z" fill="#297EA6"></path></g><g transform="translate(226 18)"><path d="M0 -2L1.6 -1.2L1.9 0.4L0.9 1.8L-0.9 1.8L-1.9 0.4L-1.6 -1.2Z" fill="#297EA6"></path></g><g transform="translate(339 585)"><path d="M0 -6L4.7 -3.7L5.8 1.3L2.6 5.4L-2.6 5.4L-5.8 1.3L-4.7 -3.7Z" fill="#297EA6"></path></g><g transform="translate(298 200)"><path d="M0 -9L7 -5.6L8.8 2L3.9 8.1L-3.9 8.1L-8.8 2L-7 -5.6Z" fill="#297EA6"></path></g><g transform="translate(265 136)"><path d="M0 -4L3.1 -2.5L3.9 0.9L1.7 3.6L-1.7 3.6L-3.9 0.9L-3.1 -2.5Z" fill="#297EA6"></path></g><g transform="translate(165 476)"><path d="M0 -7L5.5 -4.4L6.8 1.6L3 6.3L-3 6.3L-6.8 1.6L-5.5 -4.4Z" fill="#297EA6"></path></g><g transform="translate(744 64)"><path d="M0 -4L3.1 -2.5L3.9 0.9L1.7 3.6L-1.7 3.6L-3.9 0.9L-3.1 -2.5Z" fill="#297EA6"></path></g><g transform="translate(446 53)"><path d="M0 -9L7 -5.6L8.8 2L3.9 8.1L-3.9 8.1L-8.8 2L-7 -5.6Z" fill="#297EA6"></path></g><g transform="translate(586 395)"><path d="M0 -5L3.9 -3.1L4.9 1.1L2.2 4.5L-2.2 4.5L-4.9 1.1L-3.9 -3.1Z" fill="#297EA6"></path></g><g transform="translate(395 112)"><path d="M0 -11L8.6 -6.9L10.7 2.4L4.8 9.9L-4.8 9.9L-10.7 2.4L-8.6 -6.9Z" fill="#297EA6"></path></g><g transform="translate(305 400)"><path d="M0 -5L3.9 -3.1L4.9 1.1L2.2 4.5L-2.2 4.5L-4.9 1.1L-3.9 -3.1Z" fill="#297EA6"></path></g><g transform="translate(800 569)"><path d="M0 -4L3.1 -2.5L3.9 0.9L1.7 3.6L-1.7 3.6L-3.9 0.9L-3.1 -2.5Z" fill="#297EA6"></path></g><g transform="translate(290 303)"><path d="M0 -5L3.9 -3.1L4.9 1.1L2.2 4.5L-2.2 4.5L-4.9 1.1L-3.9 -3.1Z" fill="#297EA6"></path></g><g transform="translate(863 487)"><path d="M0 -11L8.6 -6.9L10.7 2.4L4.8 9.9L-4.8 9.9L-10.7 2.4L-8.6 -6.9Z" fill="#297EA6"></path></g><g transform="translate(869 453)"><path d="M0 -4L3.1 -2.5L3.9 0.9L1.7 3.6L-1.7 3.6L-3.9 0.9L-3.1 -2.5Z" fill="#297EA6"></path></g><g transform="translate(883 531)"><path d="M0 -1L0.8 -0.6L1 0.2L0.4 0.9L-0.4 0.9L-1 0.2L-0.8 -0.6Z" fill="#297EA6"></path></g><g transform="translate(300 453)"><path d="M0 -8L6.3 -5L7.8 1.8L3.5 7.2L-3.5 7.2L-7.8 1.8L-6.3 -5Z" fill="#297EA6"></path></g><g transform="translate(818 280)"><path d="M0 -5L3.9 -3.1L4.9 1.1L2.2 4.5L-2.2 4.5L-4.9 1.1L-3.9 -3.1Z" fill="#297EA6"></path></g><g transform="translate(549 315)"><path d="M0 -1L0.8 -0.6L1 0.2L0.4 0.9L-0.4 0.9L-1 0.2L-0.8 -0.6Z" fill="#297EA6"></path></g><g transform="translate(706 45)"><path d="M0 -4L3.1 -2.5L3.9 0.9L1.7 3.6L-1.7 3.6L-3.9 0.9L-3.1 -2.5Z" fill="#297EA6"></path></g><g transform="translate(215 571)"><path d="M0 -11L8.6 -6.9L10.7 2.4L4.8 9.9L-4.8 9.9L-10.7 2.4L-8.6 -6.9Z" fill="#297EA6"></path></g><g transform="translate(148 308)"><path d="M0 -7L5.5 -4.4L6.8 1.6L3 6.3L-3 6.3L-6.8 1.6L-5.5 -4.4Z" fill="#297EA6"></path></g><g transform="translate(810 131)"><path d="M0 -9L7 -5.6L8.8 2L3.9 8.1L-3.9 8.1L-8.8 2L-7 -5.6Z" fill="#297EA6"></path></g><g transform="translate(4 38)"><path d="M0 -6L4.7 -3.7L5.8 1.3L2.6 5.4L-2.6 5.4L-5.8 1.3L-4.7 -3.7Z" fill="#297EA6"></path></g><g transform="translate(896 559)"><path d="M0 -5L3.9 -3.1L4.9 1.1L2.2 4.5L-2.2 4.5L-4.9 1.1L-3.9 -3.1Z" fill="#297EA6"></path></g><g transform="translate(777 86)"><path d="M0 -12L9.4 -7.5L11.7 2.7L5.2 10.8L-5.2 10.8L-11.7 2.7L-9.4 -7.5Z" fill="#297EA6"></path></g><g transform="translate(184 418)"><path d="M0 -5L3.9 -3.1L4.9 1.1L2.2 4.5L-2.2 4.5L-4.9 1.1L-3.9 -3.1Z" fill="#297EA6"></path></g><g transform="translate(743 125)"><path d="M0 -5L3.9 -3.1L4.9 1.1L2.2 4.5L-2.2 4.5L-4.9 1.1L-3.9 -3.1Z" fill="#297EA6"></path></g><g transform="translate(670 43)"><path d="M0 -1L0.8 -0.6L1 0.2L0.4 0.9L-0.4 0.9L-1 0.2L-0.8 -0.6Z" fill="#297EA6"></path></g><g transform="translate(394 328)"><path d="M0 -6L4.7 -3.7L5.8 1.3L2.6 5.4L-2.6 5.4L-5.8 1.3L-4.7 -3.7Z" fill="#297EA6"></path></g><g transform="translate(68 538)"><path d="M0 -9L7 -5.6L8.8 2L3.9 8.1L-3.9 8.1L-8.8 2L-7 -5.6Z" fill="#297EA6"></path></g><g transform="translate(30 286)"><path d="M0 -1L0.8 -0.6L1 0.2L0.4 0.9L-0.4 0.9L-1 0.2L-0.8 -0.6Z" fill="#297EA6"></path></g><g transform="translate(444 306)"><path d="M0 -2L1.6 -1.2L1.9 0.4L0.9 1.8L-0.9 1.8L-1.9 0.4L-1.6 -1.2Z" fill="#297EA6"></path></g><g transform="translate(551 85)"><path d="M0 -2L1.6 -1.2L1.9 0.4L0.9 1.8L-0.9 1.8L-1.9 0.4L-1.6 -1.2Z" fill="#297EA6"></path></g><g transform="translate(503 129)"><path d="M0 -8L6.3 -5L7.8 1.8L3.5 7.2L-3.5 7.2L-7.8 1.8L-6.3 -5Z" fill="#297EA6"></path></g><g transform="translate(487 418)"><path d="M0 -8L6.3 -5L7.8 1.8L3.5 7.2L-3.5 7.2L-7.8 1.8L-6.3 -5Z" fill="#297EA6"></path></g><g transform="translate(450 198)"><path d="M0 -5L3.9 -3.1L4.9 1.1L2.2 4.5L-2.2 4.5L-4.9 1.1L-3.9 -3.1Z" fill="#297EA6"></path></g><g transform="translate(302 339)"><path d="M0 -12L9.4 -7.5L11.7 2.7L5.2 10.8L-5.2 10.8L-11.7 2.7L-9.4 -7.5Z" fill="#297EA6"></path></g><g transform="translate(550 447)"><path d="M0 -5L3.9 -3.1L4.9 1.1L2.2 4.5L-2.2 4.5L-4.9 1.1L-3.9 -3.1Z" fill="#297EA6"></path></g><g transform="translate(131 105)"><path d="M0 -3L2.3 -1.9L2.9 0.7L1.3 2.7L-1.3 2.7L-2.9 0.7L-2.3 -1.9Z" fill="#297EA6"></path></g><g transform="translate(88 359)"><path d="M0 -1L0.8 -0.6L1 0.2L0.4 0.9L-0.4 0.9L-1 0.2L-0.8 -0.6Z" fill="#297EA6"></path></g><g transform="translate(681 474)"><path d="M0 -4L3.1 -2.5L3.9 0.9L1.7 3.6L-1.7 3.6L-3.9 0.9L-3.1 -2.5Z" fill="#297EA6"></path></g><g transform="translate(80 216)"><path d="M0 -8L6.3 -5L7.8 1.8L3.5 7.2L-3.5 7.2L-7.8 1.8L-6.3 -5Z" fill="#297EA6"></path></g><g transform="translate(849 254)"><path d="M0 -4L3.1 -2.5L3.9 0.9L1.7 3.6L-1.7 3.6L-3.9 0.9L-3.1 -2.5Z" fill="#297EA6"></path></g><g transform="translate(279 271)"><path d="M0 -2L1.6 -1.2L1.9 0.4L0.9 1.8L-0.9 1.8L-1.9 0.4L-1.6 -1.2Z" fill="#297EA6"></path></g><g transform="translate(75 508)"><path d="M0 -10L7.8 -6.2L9.7 2.2L4.3 9L-4.3 9L-9.7 2.2L-7.8 -6.2Z" fill="#297EA6"></path></g><g transform="translate(510 245)"><path d="M0 -8L6.3 -5L7.8 1.8L3.5 7.2L-3.5 7.2L-7.8 1.8L-6.3 -5Z" fill="#297EA6"></path></g><g transform="translate(603 441)"><path d="M0 -1L0.8 -0.6L1 0.2L0.4 0.9L-0.4 0.9L-1 0.2L-0.8 -0.6Z" fill="#297EA6"></path></g><g transform="translate(637 273)"><path d="M0 -8L6.3 -5L7.8 1.8L3.5 7.2L-3.5 7.2L-7.8 1.8L-6.3 -5Z" fill="#297EA6"></path></g><g transform="translate(829 359)"><path d="M0 -5L3.9 -3.1L4.9 1.1L2.2 4.5L-2.2 4.5L-4.9 1.1L-3.9 -3.1Z" fill="#297EA6"></path></g><g transform="translate(574 483)"><path d="M0 -6L4.7 -3.7L5.8 1.3L2.6 5.4L-2.6 5.4L-5.8 1.3L-4.7 -3.7Z" fill="#297EA6"></path></g><g transform="translate(685 71)"><path d="M0 -3L2.3 -1.9L2.9 0.7L1.3 2.7L-1.3 2.7L-2.9 0.7L-2.3 -1.9Z" fill="#297EA6"></path></g><g transform="translate(884 205)"><path d="M0 -10L7.8 -6.2L9.7 2.2L4.3 9L-4.3 9L-9.7 2.2L-7.8 -6.2Z" fill="#297EA6"></path></g><g transform="translate(491 340)"><path d="M0 -6L4.7 -3.7L5.8 1.3L2.6 5.4L-2.6 5.4L-5.8 1.3L-4.7 -3.7Z" fill="#297EA6"></path></g><g transform="translate(746 176)"><path d="M0 -9L7 -5.6L8.8 2L3.9 8.1L-3.9 8.1L-8.8 2L-7 -5.6Z" fill="#297EA6"></path></g><g transform="translate(174 198)"><path d="M0 -2L1.6 -1.2L1.9 0.4L0.9 1.8L-0.9 1.8L-1.9 0.4L-1.6 -1.2Z" fill="#297EA6"></path></g><g transform="translate(798 373)"><path d="M0 -9L7 -5.6L8.8 2L3.9 8.1L-3.9 8.1L-8.8 2L-7 -5.6Z" fill="#297EA6"></path></g><g transform="translate(569 239)"><path d="M0 -2L1.6 -1.2L1.9 0.4L0.9 1.8L-0.9 1.8L-1.9 0.4L-1.6 -1.2Z" fill="#297EA6"></path></g><g transform="translate(296 145)"><path d="M0 -7L5.5 -4.4L6.8 1.6L3 6.3L-3 6.3L-6.8 1.6L-5.5 -4.4Z" fill="#297EA6"></path></g><g transform="translate(625 573)"><path d="M0 -2L1.6 -1.2L1.9 0.4L0.9 1.8L-0.9 1.8L-1.9 0.4L-1.6 -1.2Z" fill="#297EA6"></path></g><g transform="translate(422 188)"><path d="M0 -5L3.9 -3.1L4.9 1.1L2.2 4.5L-2.2 4.5L-4.9 1.1L-3.9 -3.1Z" fill="#297EA6"></path></g><g transform="translate(32 457)"><path d="M0 -11L8.6 -6.9L10.7 2.4L4.8 9.9L-4.8 9.9L-10.7 2.4L-8.6 -6.9Z" fill="#297EA6"></path></g><g transform="translate(177 318)"><path d="M0 -3L2.3 -1.9L2.9 0.7L1.3 2.7L-1.3 2.7L-2.9 0.7L-2.3 -1.9Z" fill="#297EA6"></path></g><g transform="translate(444 499)"><path d="M0 -4L3.1 -2.5L3.9 0.9L1.7 3.6L-1.7 3.6L-3.9 0.9L-3.1 -2.5Z" fill="#297EA6"></path></g><g transform="translate(124 496)"><path d="M0 -7L5.5 -4.4L6.8 1.6L3 6.3L-3 6.3L-6.8 1.6L-5.5 -4.4Z" fill="#297EA6"></path></g><g transform="translate(471 574)"><path d="M0 -1L0.8 -0.6L1 0.2L0.4 0.9L-0.4 0.9L-1 0.2L-0.8 -0.6Z" fill="#297EA6"></path></g><g transform="translate(118 360)"><path d="M0 -2L1.6 -1.2L1.9 0.4L0.9 1.8L-0.9 1.8L-1.9 0.4L-1.6 -1.2Z" fill="#297EA6"></path></g><g transform="translate(663 497)"><path d="M0 -3L2.3 -1.9L2.9 0.7L1.3 2.7L-1.3 2.7L-2.9 0.7L-2.3 -1.9Z" fill="#297EA6"></path></g><g transform="translate(817 6)"><path d="M0 -8L6.3 -5L7.8 1.8L3.5 7.2L-3.5 7.2L-7.8 1.8L-6.3 -5Z" fill="#297EA6"></path></g><g transform="translate(476 64)"><path d="M0 -3L2.3 -1.9L2.9 0.7L1.3 2.7L-1.3 2.7L-2.9 0.7L-2.3 -1.9Z" fill="#297EA6"></path></g><g transform="translate(654 165)"><path d="M0 -3L2.3 -1.9L2.9 0.7L1.3 2.7L-1.3 2.7L-2.9 0.7L-2.3 -1.9Z" fill="#297EA6"></path></g><g transform="translate(287 535)"><path d="M0 -6L4.7 -3.7L5.8 1.3L2.6 5.4L-2.6 5.4L-5.8 1.3L-4.7 -3.7Z" fill="#297EA6"></path></g><g transform="translate(541 224)"><path d="M0 -7L5.5 -4.4L6.8 1.6L3 6.3L-3 6.3L-6.8 1.6L-5.5 -4.4Z" fill="#297EA6"></path></g><g transform="translate(770 257)"><path d="M0 -11L8.6 -6.9L10.7 2.4L4.8 9.9L-4.8 9.9L-10.7 2.4L-8.6 -6.9Z" fill="#297EA6"></path></g><g transform="translate(356 367)"><path d="M0 -12L9.4 -7.5L11.7 2.7L5.2 10.8L-5.2 10.8L-11.7 2.7L-9.4 -7.5Z" fill="#297EA6"></path></g><g transform="translate(543 400)"><path d="M0 -5L3.9 -3.1L4.9 1.1L2.2 4.5L-2.2 4.5L-4.9 1.1L-3.9 -3.1Z" fill="#297EA6"></path></g><g transform="translate(39 534)"><path d="M0 -11L8.6 -6.9L10.7 2.4L4.8 9.9L-4.8 9.9L-10.7 2.4L-8.6 -6.9Z" fill="#297EA6"></path></g><g transform="translate(487 156)"><path d="M0 -5L3.9 -3.1L4.9 1.1L2.2 4.5L-2.2 4.5L-4.9 1.1L-3.9 -3.1Z" fill="#297EA6"></path></g><g transform="translate(448 403)"><path d="M0 -1L0.8 -0.6L1 0.2L0.4 0.9L-0.4 0.9L-1 0.2L-0.8 -0.6Z" fill="#297EA6"></path></g><g transform="translate(527 580)"><path d="M0 -6L4.7 -3.7L5.8 1.3L2.6 5.4L-2.6 5.4L-5.8 1.3L-4.7 -3.7Z" fill="#297EA6"></path></g><g transform="translate(765 311)"><path d="M0 -6L4.7 -3.7L5.8 1.3L2.6 5.4L-2.6 5.4L-5.8 1.3L-4.7 -3.7Z" fill="#297EA6"></path></g><g transform="translate(693 137)"><path d="M0 -5L3.9 -3.1L4.9 1.1L2.2 4.5L-2.2 4.5L-4.9 1.1L-3.9 -3.1Z" fill="#297EA6"></path></g><g transform="translate(772 407)"><path d="M0 -4L3.1 -2.5L3.9 0.9L1.7 3.6L-1.7 3.6L-3.9 0.9L-3.1 -2.5Z" fill="#297EA6"></path></g><g transform="translate(336 141)"><path d="M0 -7L5.5 -4.4L6.8 1.6L3 6.3L-3 6.3L-6.8 1.6L-5.5 -4.4Z" fill="#297EA6"></path></g><g transform="translate(379 401)"><path d="M0 -5L3.9 -3.1L4.9 1.1L2.2 4.5L-2.2 4.5L-4.9 1.1L-3.9 -3.1Z" fill="#297EA6"></path></g><g transform="translate(116 258)"><path d="M0 -11L8.6 -6.9L10.7 2.4L4.8 9.9L-4.8 9.9L-10.7 2.4L-8.6 -6.9Z" fill="#297EA6"></path></g><g transform="translate(738 343)"><path d="M0 -8L6.3 -5L7.8 1.8L3.5 7.2L-3.5 7.2L-7.8 1.8L-6.3 -5Z" fill="#297EA6"></path></g><g transform="translate(244 152)"><path d="M0 -12L9.4 -7.5L11.7 2.7L5.2 10.8L-5.2 10.8L-11.7 2.7L-9.4 -7.5Z" fill="#297EA6"></path></g><g transform="translate(483 11)"><path d="M0 -10L7.8 -6.2L9.7 2.2L4.3 9L-4.3 9L-9.7 2.2L-7.8 -6.2Z" fill="#297EA6"></path></g><g transform="translate(229 376)"><path d="M0 -2L1.6 -1.2L1.9 0.4L0.9 1.8L-0.9 1.8L-1.9 0.4L-1.6 -1.2Z" fill="#297EA6"></path></g><g transform="translate(158 542)"><path d="M0 -3L2.3 -1.9L2.9 0.7L1.3 2.7L-1.3 2.7L-2.9 0.7L-2.3 -1.9Z" fill="#297EA6"></path></g><g transform="translate(626 508)"><path d="M0 -8L6.3 -5L7.8 1.8L3.5 7.2L-3.5 7.2L-7.8 1.8L-6.3 -5Z" fill="#297EA6"></path></g><g transform="translate(413 247)"><path d="M0 -2L1.6 -1.2L1.9 0.4L0.9 1.8L-0.9 1.8L-1.9 0.4L-1.6 -1.2Z" fill="#297EA6"></path></g><g transform="translate(448 236)"><path d="M0 -2L1.6 -1.2L1.9 0.4L0.9 1.8L-0.9 1.8L-1.9 0.4L-1.6 -1.2Z" fill="#297EA6"></path></g><g transform="translate(831 207)"><path d="M0 -3L2.3 -1.9L2.9 0.7L1.3 2.7L-1.3 2.7L-2.9 0.7L-2.3 -1.9Z" fill="#297EA6"></path></g><g transform="translate(420 157)"><path d="M0 -8L6.3 -5L7.8 1.8L3.5 7.2L-3.5 7.2L-7.8 1.8L-6.3 -5Z" fill="#297EA6"></path></g><g transform="translate(16 401)"><path d="M0 -11L8.6 -6.9L10.7 2.4L4.8 9.9L-4.8 9.9L-10.7 2.4L-8.6 -6.9Z" fill="#297EA6"></path></g><g transform="translate(189 91)"><path d="M0 -5L3.9 -3.1L4.9 1.1L2.2 4.5L-2.2 4.5L-4.9 1.1L-3.9 -3.1Z" fill="#297EA6"></path></g><g transform="translate(560 57)"><path d="M0 -3L2.3 -1.9L2.9 0.7L1.3 2.7L-1.3 2.7L-2.9 0.7L-2.3 -1.9Z" fill="#297EA6"></path></g><g transform="translate(295 2)"><path d="M0 -6L4.7 -3.7L5.8 1.3L2.6 5.4L-2.6 5.4L-5.8 1.3L-4.7 -3.7Z" fill="#297EA6"></path></g><g transform="translate(135 383)"><path d="M0 -7L5.5 -4.4L6.8 1.6L3 6.3L-3 6.3L-6.8 1.6L-5.5 -4.4Z" fill="#297EA6"></path></g><g transform="translate(59 262)"><path d="M0 -2L1.6 -1.2L1.9 0.4L0.9 1.8L-0.9 1.8L-1.9 0.4L-1.6 -1.2Z" fill="#297EA6"></path></g><g transform="translate(196 497)"><path d="M0 -5L3.9 -3.1L4.9 1.1L2.2 4.5L-2.2 4.5L-4.9 1.1L-3.9 -3.1Z" fill="#297EA6"></path></g><g transform="translate(662 446)"><path d="M0 -11L8.6 -6.9L10.7 2.4L4.8 9.9L-4.8 9.9L-10.7 2.4L-8.6 -6.9Z" fill="#297EA6"></path></g><g transform="translate(28 374)"><path d="M0 -7L5.5 -4.4L6.8 1.6L3 6.3L-3 6.3L-6.8 1.6L-5.5 -4.4Z" fill="#297EA6"></path></g><g transform="translate(466 89)"><path d="M0 -5L3.9 -3.1L4.9 1.1L2.2 4.5L-2.2 4.5L-4.9 1.1L-3.9 -3.1Z" fill="#297EA6"></path></g><g transform="translate(34 348)"><path d="M0 -9L7 -5.6L8.8 2L3.9 8.1L-3.9 8.1L-8.8 2L-7 -5.6Z" fill="#297EA6"></path></g><g transform="translate(130 280)"><path d="M0 -1L0.8 -0.6L1 0.2L0.4 0.9L-0.4 0.9L-1 0.2L-0.8 -0.6Z" fill="#297EA6"></path></g><g transform="translate(722 474)"><path d="M0 -4L3.1 -2.5L3.9 0.9L1.7 3.6L-1.7 3.6L-3.9 0.9L-3.1 -2.5Z" fill="#297EA6"></path></g><g transform="translate(212 426)"><path d="M0 -9L7 -5.6L8.8 2L3.9 8.1L-3.9 8.1L-8.8 2L-7 -5.6Z" fill="#297EA6"></path></g><g transform="translate(896 398)"><path d="M0 -4L3.1 -2.5L3.9 0.9L1.7 3.6L-1.7 3.6L-3.9 0.9L-3.1 -2.5Z" fill="#297EA6"></path></g><g transform="translate(230 337)"><path d="M0 -7L5.5 -4.4L6.8 1.6L3 6.3L-3 6.3L-6.8 1.6L-5.5 -4.4Z" fill="#297EA6"></path></g><g transform="translate(522 430)"><path d="M0 -5L3.9 -3.1L4.9 1.1L2.2 4.5L-2.2 4.5L-4.9 1.1L-3.9 -3.1Z" fill="#297EA6"></path></g><g transform="translate(35 137)"><path d="M0 -7L5.5 -4.4L6.8 1.6L3 6.3L-3 6.3L-6.8 1.6L-5.5 -4.4Z" fill="#297EA6"></path></g><g transform="translate(393 197)"><path d="M0 -4L3.1 -2.5L3.9 0.9L1.7 3.6L-1.7 3.6L-3.9 0.9L-3.1 -2.5Z" fill="#297EA6"></path></g><g transform="translate(344 435)"><path d="M0 -6L4.7 -3.7L5.8 1.3L2.6 5.4L-2.6 5.4L-5.8 1.3L-4.7 -3.7Z" fill="#297EA6"></path></g><g transform="translate(664 196)"><path d="M0 -5L3.9 -3.1L4.9 1.1L2.2 4.5L-2.2 4.5L-4.9 1.1L-3.9 -3.1Z" fill="#297EA6"></path></g><g transform="translate(711 332)"><path d="M0 -10L7.8 -6.2L9.7 2.2L4.3 9L-4.3 9L-9.7 2.2L-7.8 -6.2Z" fill="#297EA6"></path></g><g transform="translate(835 441)"><path d="M0 -12L9.4 -7.5L11.7 2.7L5.2 10.8L-5.2 10.8L-11.7 2.7L-9.4 -7.5Z" fill="#297EA6"></path></g><g transform="translate(306 568)"><path d="M0 -7L5.5 -4.4L6.8 1.6L3 6.3L-3 6.3L-6.8 1.6L-5.5 -4.4Z" fill="#297EA6"></path></g><g transform="translate(723 256)"><path d="M0 -1L0.8 -0.6L1 0.2L0.4 0.9L-0.4 0.9L-1 0.2L-0.8 -0.6Z" fill="#297EA6"></path></g><g transform="translate(56 397)"><path d="M0 -12L9.4 -7.5L11.7 2.7L5.2 10.8L-5.2 10.8L-11.7 2.7L-9.4 -7.5Z" fill="#297EA6"></path></g><g transform="translate(841 32)"><path d="M0 -11L8.6 -6.9L10.7 2.4L4.8 9.9L-4.8 9.9L-10.7 2.4L-8.6 -6.9Z" fill="#297EA6"></path></g><g transform="translate(445 533)"><path d="M0 -7L5.5 -4.4L6.8 1.6L3 6.3L-3 6.3L-6.8 1.6L-5.5 -4.4Z" fill="#297EA6"></path></g><g transform="translate(5 524)"><path d="M0 -8L6.3 -5L7.8 1.8L3.5 7.2L-3.5 7.2L-7.8 1.8L-6.3 -5Z" fill="#297EA6"></path></g><g transform="translate(25 205)"><path d="M0 -8L6.3 -5L7.8 1.8L3.5 7.2L-3.5 7.2L-7.8 1.8L-6.3 -5Z" fill="#297EA6"></path></g><g transform="translate(509 510)"><path d="M0 -11L8.6 -6.9L10.7 2.4L4.8 9.9L-4.8 9.9L-10.7 2.4L-8.6 -6.9Z" fill="#297EA6"></path></g><g transform="translate(839 172)"><path d="M0 -8L6.3 -5L7.8 1.8L3.5 7.2L-3.5 7.2L-7.8 1.8L-6.3 -5Z" fill="#297EA6"></path></g><g transform="translate(390 138)"><path d="M0 -9L7 -5.6L8.8 2L3.9 8.1L-3.9 8.1L-8.8 2L-7 -5.6Z" fill="#297EA6"></path></g><g transform="translate(271 104)"><path d="M0 -6L4.7 -3.7L5.8 1.3L2.6 5.4L-2.6 5.4L-5.8 1.3L-4.7 -3.7Z" fill="#297EA6"></path></g><g transform="translate(5 90)"><path d="M0 -2L1.6 -1.2L1.9 0.4L0.9 1.8L-0.9 1.8L-1.9 0.4L-1.6 -1.2Z" fill="#297EA6"></path></g><g transform="translate(625 238)"><path d="M0 -12L9.4 -7.5L11.7 2.7L5.2 10.8L-5.2 10.8L-11.7 2.7L-9.4 -7.5Z" fill="#297EA6"></path></g><g transform="translate(45 94)"><path d="M0 -8L6.3 -5L7.8 1.8L3.5 7.2L-3.5 7.2L-7.8 1.8L-6.3 -5Z" fill="#297EA6"></path></g><g transform="translate(881 17)"><path d="M0 -9L7 -5.6L8.8 2L3.9 8.1L-3.9 8.1L-8.8 2L-7 -5.6Z" fill="#297EA6"></path></g><g transform="translate(599 264)"><path d="M0 -12L9.4 -7.5L11.7 2.7L5.2 10.8L-5.2 10.8L-11.7 2.7L-9.4 -7.5Z" fill="#297EA6"></path></g><g transform="translate(547 259)"><path d="M0 -9L7 -5.6L8.8 2L3.9 8.1L-3.9 8.1L-8.8 2L-7 -5.6Z" fill="#297EA6"></path></g><g transform="translate(192 347)"><path d="M0 -8L6.3 -5L7.8 1.8L3.5 7.2L-3.5 7.2L-7.8 1.8L-6.3 -5Z" fill="#297EA6"></path></g><g transform="translate(681 576)"><path d="M0 -4L3.1 -2.5L3.9 0.9L1.7 3.6L-1.7 3.6L-3.9 0.9L-3.1 -2.5Z" fill="#297EA6"></path></g><g transform="translate(842 391)"><path d="M0 -3L2.3 -1.9L2.9 0.7L1.3 2.7L-1.3 2.7L-2.9 0.7L-2.3 -1.9Z" fill="#297EA6"></path></g><g transform="translate(159 125)"><path d="M0 -1L0.8 -0.6L1 0.2L0.4 0.9L-0.4 0.9L-1 0.2L-0.8 -0.6Z" fill="#297EA6"></path></g><g transform="translate(392 360)"><path d="M0 -5L3.9 -3.1L4.9 1.1L2.2 4.5L-2.2 4.5L-4.9 1.1L-3.9 -3.1Z" fill="#297EA6"></path></g><g transform="translate(813 503)"><path d="M0 -8L6.3 -5L7.8 1.8L3.5 7.2L-3.5 7.2L-7.8 1.8L-6.3 -5Z" fill="#297EA6"></path></g><g transform="translate(153 64)"><path d="M0 -10L7.8 -6.2L9.7 2.2L4.3 9L-4.3 9L-9.7 2.2L-7.8 -6.2Z" fill="#297EA6"></path></g><g transform="translate(283 418)"><path d="M0 -9L7 -5.6L8.8 2L3.9 8.1L-3.9 8.1L-8.8 2L-7 -5.6Z" fill="#297EA6"></path></g><g transform="translate(193 283)"><path d="M0 -12L9.4 -7.5L11.7 2.7L5.2 10.8L-5.2 10.8L-11.7 2.7L-9.4 -7.5Z" fill="#297EA6"></path></g><g transform="translate(4 134)"><path d="M0 -8L6.3 -5L7.8 1.8L3.5 7.2L-3.5 7.2L-7.8 1.8L-6.3 -5Z" fill="#297EA6"></path></g><g transform="translate(370 522)"><path d="M0 -5L3.9 -3.1L4.9 1.1L2.2 4.5L-2.2 4.5L-4.9 1.1L-3.9 -3.1Z" fill="#297EA6"></path></g><g transform="translate(600 343)"><path d="M0 -7L5.5 -4.4L6.8 1.6L3 6.3L-3 6.3L-6.8 1.6L-5.5 -4.4Z" fill="#297EA6"></path></g><g transform="translate(449 165)"><path d="M0 -2L1.6 -1.2L1.9 0.4L0.9 1.8L-0.9 1.8L-1.9 0.4L-1.6 -1.2Z" fill="#297EA6"></path></g><g transform="translate(376 164)"><path d="M0 -4L3.1 -2.5L3.9 0.9L1.7 3.6L-1.7 3.6L-3.9 0.9L-3.1 -2.5Z" fill="#297EA6"></path></g><g transform="translate(295 505)"><path d="M0 -7L5.5 -4.4L6.8 1.6L3 6.3L-3 6.3L-6.8 1.6L-5.5 -4.4Z" fill="#297EA6"></path></g><g transform="translate(497 299)"><path d="M0 -3L2.3 -1.9L2.9 0.7L1.3 2.7L-1.3 2.7L-2.9 0.7L-2.3 -1.9Z" fill="#297EA6"></path></g><g transform="translate(364 473)"><path d="M0 -9L7 -5.6L8.8 2L3.9 8.1L-3.9 8.1L-8.8 2L-7 -5.6Z" fill="#297EA6"></path></g><g transform="translate(690 368)"><path d="M0 -8L6.3 -5L7.8 1.8L3.5 7.2L-3.5 7.2L-7.8 1.8L-6.3 -5Z" fill="#297EA6"></path></g><g transform="translate(6 173)"><path d="M0 -11L8.6 -6.9L10.7 2.4L4.8 9.9L-4.8 9.9L-10.7 2.4L-8.6 -6.9Z" fill="#297EA6"></path></g><g transform="translate(630 7)"><path d="M0 -4L3.1 -2.5L3.9 0.9L1.7 3.6L-1.7 3.6L-3.9 0.9L-3.1 -2.5Z" fill="#297EA6"></path></g><g transform="translate(344 196)"><path d="M0 -3L2.3 -1.9L2.9 0.7L1.3 2.7L-1.3 2.7L-2.9 0.7L-2.3 -1.9Z" fill="#297EA6"></path></g><g transform="translate(408 422)"><path d="M0 -6L4.7 -3.7L5.8 1.3L2.6 5.4L-2.6 5.4L-5.8 1.3L-4.7 -3.7Z" fill="#297EA6"></path></g><g transform="translate(697 396)"><path d="M0 -11L8.6 -6.9L10.7 2.4L4.8 9.9L-4.8 9.9L-10.7 2.4L-8.6 -6.9Z" fill="#297EA6"></path></g><g transform="translate(841 69)"><path d="M0 -1L0.8 -0.6L1 0.2L0.4 0.9L-0.4 0.9L-1 0.2L-0.8 -0.6Z" fill="#297EA6"></path></g><g transform="translate(870 42)"><path d="M0 -6L4.7 -3.7L5.8 1.3L2.6 5.4L-2.6 5.4L-5.8 1.3L-4.7 -3.7Z" fill="#297EA6"></path></g><g transform="translate(649 353)"><path d="M0 -8L6.3 -5L7.8 1.8L3.5 7.2L-3.5 7.2L-7.8 1.8L-6.3 -5Z" fill="#297EA6"></path></g><g transform="translate(354 20)"><path d="M0 -1L0.8 -0.6L1 0.2L0.4 0.9L-0.4 0.9L-1 0.2L-0.8 -0.6Z" fill="#297EA6"></path></g><g transform="translate(764 533)"><path d="M0 -12L9.4 -7.5L11.7 2.7L5.2 10.8L-5.2 10.8L-11.7 2.7L-9.4 -7.5Z" fill="#297EA6"></path></g><g transform="translate(118 6)"><path d="M0 -6L4.7 -3.7L5.8 1.3L2.6 5.4L-2.6 5.4L-5.8 1.3L-4.7 -3.7Z" fill="#297EA6"></path></g><g transform="translate(526 281)"><path d="M0 -10L7.8 -6.2L9.7 2.2L4.3 9L-4.3 9L-9.7 2.2L-7.8 -6.2Z" fill="#297EA6"></path></g><g transform="translate(207 200)"><path d="M0 -8L6.3 -5L7.8 1.8L3.5 7.2L-3.5 7.2L-7.8 1.8L-6.3 -5Z" fill="#297EA6"></path></g><g transform="translate(592 220)"><path d="M0 -3L2.3 -1.9L2.9 0.7L1.3 2.7L-1.3 2.7L-2.9 0.7L-2.3 -1.9Z" fill="#297EA6"></path></g><g transform="translate(54 7)"><path d="M0 -9L7 -5.6L8.8 2L3.9 8.1L-3.9 8.1L-8.8 2L-7 -5.6Z" fill="#297EA6"></path></g><g transform="translate(273 29)"><path d="M0 -10L7.8 -6.2L9.7 2.2L4.3 9L-4.3 9L-9.7 2.2L-7.8 -6.2Z" fill="#297EA6"></path></g><g transform="translate(691 444)"><path d="M0 -6L4.7 -3.7L5.8 1.3L2.6 5.4L-2.6 5.4L-5.8 1.3L-4.7 -3.7Z" fill="#297EA6"></path></g><g transform="translate(120 591)"><path d="M0 -5L3.9 -3.1L4.9 1.1L2.2 4.5L-2.2 4.5L-4.9 1.1L-3.9 -3.1Z" fill="#297EA6"></path></g><g transform="translate(607 472)"><path d="M0 -8L6.3 -5L7.8 1.8L3.5 7.2L-3.5 7.2L-7.8 1.8L-6.3 -5Z" fill="#297EA6"></path></g><g transform="translate(751 458)"><path d="M0 -3L2.3 -1.9L2.9 0.7L1.3 2.7L-1.3 2.7L-2.9 0.7L-2.3 -1.9Z" fill="#297EA6"></path></g><g transform="translate(434 432)"><path d="M0 -12L9.4 -7.5L11.7 2.7L5.2 10.8L-5.2 10.8L-11.7 2.7L-9.4 -7.5Z" fill="#297EA6"></path></g><g transform="translate(247 68)"><path d="M0 -6L4.7 -3.7L5.8 1.3L2.6 5.4L-2.6 5.4L-5.8 1.3L-4.7 -3.7Z" fill="#297EA6"></path></g><g transform="translate(552 125)"><path d="M0 -10L7.8 -6.2L9.7 2.2L4.3 9L-4.3 9L-9.7 2.2L-7.8 -6.2Z" fill="#297EA6"></path></g><g transform="translate(320 364)"><path d="M0 -11L8.6 -6.9L10.7 2.4L4.8 9.9L-4.8 9.9L-10.7 2.4L-8.6 -6.9Z" fill="#297EA6"></path></g><g transform="translate(800 345)"><path d="M0 -11L8.6 -6.9L10.7 2.4L4.8 9.9L-4.8 9.9L-10.7 2.4L-8.6 -6.9Z" fill="#297EA6"></path></g><g transform="translate(374 219)"><path d="M0 -3L2.3 -1.9L2.9 0.7L1.3 2.7L-1.3 2.7L-2.9 0.7L-2.3 -1.9Z" fill="#297EA6"></path></g><g transform="translate(201 387)"><path d="M0 -8L6.3 -5L7.8 1.8L3.5 7.2L-3.5 7.2L-7.8 1.8L-6.3 -5Z" fill="#297EA6"></path></g><g transform="translate(155 345)"><path d="M0 -6L4.7 -3.7L5.8 1.3L2.6 5.4L-2.6 5.4L-5.8 1.3L-4.7 -3.7Z" fill="#297EA6"></path></g><g transform="translate(372 275)"><path d="M0 -1L0.8 -0.6L1 0.2L0.4 0.9L-0.4 0.9L-1 0.2L-0.8 -0.6Z" fill="#297EA6"></path></g><g transform="translate(810 414)"><path d="M0 -3L2.3 -1.9L2.9 0.7L1.3 2.7L-1.3 2.7L-2.9 0.7L-2.3 -1.9Z" fill="#297EA6"></path></g><g transform="translate(580 303)"><path d="M0 -11L8.6 -6.9L10.7 2.4L4.8 9.9L-4.8 9.9L-10.7 2.4L-8.6 -6.9Z" fill="#297EA6"></path></g><g transform="translate(868 368)"><path d="M0 -5L3.9 -3.1L4.9 1.1L2.2 4.5L-2.2 4.5L-4.9 1.1L-3.9 -3.1Z" fill="#297EA6"></path></g><g transform="translate(237 506)"><path d="M0 -10L7.8 -6.2L9.7 2.2L4.3 9L-4.3 9L-9.7 2.2L-7.8 -6.2Z" fill="#297EA6"></path></g><g transform="translate(194 14)"><path d="M0 -5L3.9 -3.1L4.9 1.1L2.2 4.5L-2.2 4.5L-4.9 1.1L-3.9 -3.1Z" fill="#297EA6"></path></g><g transform="translate(51 433)"><path d="M0 -5L3.9 -3.1L4.9 1.1L2.2 4.5L-2.2 4.5L-4.9 1.1L-3.9 -3.1Z" fill="#297EA6"></path></g><g transform="translate(315 223)"><path d="M0 -7L5.5 -4.4L6.8 1.6L3 6.3L-3 6.3L-6.8 1.6L-5.5 -4.4Z" fill="#297EA6"></path></g><g transform="translate(376 575)"><path d="M0 -2L1.6 -1.2L1.9 0.4L0.9 1.8L-0.9 1.8L-1.9 0.4L-1.6 -1.2Z" fill="#297EA6"></path></g><g transform="translate(835 113)"><path d="M0 -10L7.8 -6.2L9.7 2.2L4.3 9L-4.3 9L-9.7 2.2L-7.8 -6.2Z" fill="#297EA6"></path></g><g transform="translate(278 229)"><path d="M0 -9L7 -5.6L8.8 2L3.9 8.1L-3.9 8.1L-8.8 2L-7 -5.6Z" fill="#297EA6"></path></g><g transform="translate(357 62)"><path d="M0 -4L3.1 -2.5L3.9 0.9L1.7 3.6L-1.7 3.6L-3.9 0.9L-3.1 -2.5Z" fill="#297EA6"></path></g><g transform="translate(55 229)"><path d="M0 -12L9.4 -7.5L11.7 2.7L5.2 10.8L-5.2 10.8L-11.7 2.7L-9.4 -7.5Z" fill="#297EA6"></path></g><g transform="translate(877 69)"><path d="M0 -3L2.3 -1.9L2.9 0.7L1.3 2.7L-1.3 2.7L-2.9 0.7L-2.3 -1.9Z" fill="#297EA6"></path></g><g transform="translate(898 182)"><path d="M0 -9L7 -5.6L8.8 2L3.9 8.1L-3.9 8.1L-8.8 2L-7 -5.6Z" fill="#297EA6"></path></g><g transform="translate(481 276)"><path d="M0 -3L2.3 -1.9L2.9 0.7L1.3 2.7L-1.3 2.7L-2.9 0.7L-2.3 -1.9Z" fill="#297EA6"></path></g><g transform="translate(803 180)"><path d="M0 -8L6.3 -5L7.8 1.8L3.5 7.2L-3.5 7.2L-7.8 1.8L-6.3 -5Z" fill="#297EA6"></path></g><g transform="translate(225 308)"><path d="M0 -11L8.6 -6.9L10.7 2.4L4.8 9.9L-4.8 9.9L-10.7 2.4L-8.6 -6.9Z" fill="#297EA6"></path></g><g transform="translate(826 470)"><path d="M0 -3L2.3 -1.9L2.9 0.7L1.3 2.7L-1.3 2.7L-2.9 0.7L-2.3 -1.9Z" fill="#297EA6"></path></g><g transform="translate(178 449)"><path d="M0 -9L7 -5.6L8.8 2L3.9 8.1L-3.9 8.1L-8.8 2L-7 -5.6Z" fill="#297EA6"></path></g><g transform="translate(197 65)"><path d="M0 -6L4.7 -3.7L5.8 1.3L2.6 5.4L-2.6 5.4L-5.8 1.3L-4.7 -3.7Z" fill="#297EA6"></path></g><g transform="translate(708 168)"><path d="M0 -7L5.5 -4.4L6.8 1.6L3 6.3L-3 6.3L-6.8 1.6L-5.5 -4.4Z" fill="#297EA6"></path></g><g transform="translate(601 76)"><path d="M0 -8L6.3 -5L7.8 1.8L3.5 7.2L-3.5 7.2L-7.8 1.8L-6.3 -5Z" fill="#297EA6"></path></g><g transform="translate(608 160)"><path d="M0 -7L5.5 -4.4L6.8 1.6L3 6.3L-3 6.3L-6.8 1.6L-5.5 -4.4Z" fill="#297EA6"></path></g><g transform="translate(109 298)"><path d="M0 -11L8.6 -6.9L10.7 2.4L4.8 9.9L-4.8 9.9L-10.7 2.4L-8.6 -6.9Z" fill="#297EA6"></path></g><g transform="translate(11 265)"><path d="M0 -5L3.9 -3.1L4.9 1.1L2.2 4.5L-2.2 4.5L-4.9 1.1L-3.9 -3.1Z" fill="#297EA6"></path></g><g transform="translate(16 11)"><path d="M0 -8L6.3 -5L7.8 1.8L3.5 7.2L-3.5 7.2L-7.8 1.8L-6.3 -5Z" fill="#297EA6"></path></g><g transform="translate(118 422)"><path d="M0 -9L7 -5.6L8.8 2L3.9 8.1L-3.9 8.1L-8.8 2L-7 -5.6Z" fill="#297EA6"></path></g><g transform="translate(681 233)"><path d="M0 -5L3.9 -3.1L4.9 1.1L2.2 4.5L-2.2 4.5L-4.9 1.1L-3.9 -3.1Z" fill="#297EA6"></path></g><g transform="translate(827 328)"><path d="M0 -5L3.9 -3.1L4.9 1.1L2.2 4.5L-2.2 4.5L-4.9 1.1L-3.9 -3.1Z" fill="#297EA6"></path></g><g transform="translate(107 529)"><path d="M0 -8L6.3 -5L7.8 1.8L3.5 7.2L-3.5 7.2L-7.8 1.8L-6.3 -5Z" fill="#297EA6"></path></g><g transform="translate(232 105)"><path d="M0 -9L7 -5.6L8.8 2L3.9 8.1L-3.9 8.1L-8.8 2L-7 -5.6Z" fill="#297EA6"></path></g><g transform="translate(362 103)"><path d="M0 -6L4.7 -3.7L5.8 1.3L2.6 5.4L-2.6 5.4L-5.8 1.3L-4.7 -3.7Z" fill="#297EA6"></path></g><g transform="translate(150 162)"><path d="M0 -12L9.4 -7.5L11.7 2.7L5.2 10.8L-5.2 10.8L-11.7 2.7L-9.4 -7.5Z" fill="#297EA6"></path></g><g transform="translate(760 4)"><path d="M0 -1L0.8 -0.6L1 0.2L0.4 0.9L-0.4 0.9L-1 0.2L-0.8 -0.6Z" fill="#297EA6"></path></g><g transform="translate(638 34)"><path d="M0 -4L3.1 -2.5L3.9 0.9L1.7 3.6L-1.7 3.6L-3.9 0.9L-3.1 -2.5Z" fill="#297EA6"></path></g><g transform="translate(318 92)"><path d="M0 -8L6.3 -5L7.8 1.8L3.5 7.2L-3.5 7.2L-7.8 1.8L-6.3 -5Z" fill="#297EA6"></path></g><g transform="translate(865 231)"><path d="M0 -12L9.4 -7.5L11.7 2.7L5.2 10.8L-5.2 10.8L-11.7 2.7L-9.4 -7.5Z" fill="#297EA6"></path></g><g transform="translate(165 387)"><path d="M0 -8L6.3 -5L7.8 1.8L3.5 7.2L-3.5 7.2L-7.8 1.8L-6.3 -5Z" fill="#297EA6"></path></g><g transform="translate(505 71)"><path d="M0 -9L7 -5.6L8.8 2L3.9 8.1L-3.9 8.1L-8.8 2L-7 -5.6Z" fill="#297EA6"></path></g><g transform="translate(576 142)"><path d="M0 -3L2.3 -1.9L2.9 0.7L1.3 2.7L-1.3 2.7L-2.9 0.7L-2.3 -1.9Z" fill="#297EA6"></path></g><g transform="translate(34 250)"><path d="M0 -12L9.4 -7.5L11.7 2.7L5.2 10.8L-5.2 10.8L-11.7 2.7L-9.4 -7.5Z" fill="#297EA6"></path></g><g transform="translate(863 286)"><path d="M0 -1L0.8 -0.6L1 0.2L0.4 0.9L-0.4 0.9L-1 0.2L-0.8 -0.6Z" fill="#297EA6"></path></g><g transform="translate(860 335)"><path d="M0 -4L3.1 -2.5L3.9 0.9L1.7 3.6L-1.7 3.6L-3.9 0.9L-3.1 -2.5Z" fill="#297EA6"></path></g><g transform="translate(10 432)"><path d="M0 -10L7.8 -6.2L9.7 2.2L4.3 9L-4.3 9L-9.7 2.2L-7.8 -6.2Z" fill="#297EA6"></path></g><g transform="translate(753 379)"><path d="M0 -10L7.8 -6.2L9.7 2.2L4.3 9L-4.3 9L-9.7 2.2L-7.8 -6.2Z" fill="#297EA6"></path></g><g transform="translate(757 584)"><path d="M0 -6L4.7 -3.7L5.8 1.3L2.6 5.4L-2.6 5.4L-5.8 1.3L-4.7 -3.7Z" fill="#297EA6"></path></g><g transform="translate(497 209)"><path d="M0 -7L5.5 -4.4L6.8 1.6L3 6.3L-3 6.3L-6.8 1.6L-5.5 -4.4Z" fill="#297EA6"></path></g><g transform="translate(707 595)"><path d="M0 -2L1.6 -1.2L1.9 0.4L0.9 1.8L-0.9 1.8L-1.9 0.4L-1.6 -1.2Z" fill="#297EA6"></path></g><g transform="translate(815 69)"><path d="M0 -1L0.8 -0.6L1 0.2L0.4 0.9L-0.4 0.9L-1 0.2L-0.8 -0.6Z" fill="#297EA6"></path></g><g transform="translate(710 426)"><path d="M0 -1L0.8 -0.6L1 0.2L0.4 0.9L-0.4 0.9L-1 0.2L-0.8 -0.6Z" fill="#297EA6"></path></g><g transform="translate(699 202)"><path d="M0 -6L4.7 -3.7L5.8 1.3L2.6 5.4L-2.6 5.4L-5.8 1.3L-4.7 -3.7Z" fill="#297EA6"></path></g><g transform="translate(611 413)"><path d="M0 -1L0.8 -0.6L1 0.2L0.4 0.9L-0.4 0.9L-1 0.2L-0.8 -0.6Z" fill="#297EA6"></path></g><g transform="translate(525 160)"><path d="M0 -10L7.8 -6.2L9.7 2.2L4.3 9L-4.3 9L-9.7 2.2L-7.8 -6.2Z" fill="#297EA6"></path></g><g transform="translate(322 489)"><path d="M0 -1L0.8 -0.6L1 0.2L0.4 0.9L-0.4 0.9L-1 0.2L-0.8 -0.6Z" fill="#297EA6"></path></g><g transform="translate(159 28)"><path d="M0 -9L7 -5.6L8.8 2L3.9 8.1L-3.9 8.1L-8.8 2L-7 -5.6Z" fill="#297EA6"></path></g><g transform="translate(506 462)"><path d="M0 -4L3.1 -2.5L3.9 0.9L1.7 3.6L-1.7 3.6L-3.9 0.9L-3.1 -2.5Z" fill="#297EA6"></path></g><g transform="translate(111 151)"><path d="M0 -8L6.3 -5L7.8 1.8L3.5 7.2L-3.5 7.2L-7.8 1.8L-6.3 -5Z" fill="#297EA6"></path></g><g transform="translate(800 454)"><path d="M0 -12L9.4 -7.5L11.7 2.7L5.2 10.8L-5.2 10.8L-11.7 2.7L-9.4 -7.5Z" fill="#297EA6"></path></g><g transform="translate(577 104)"><path d="M0 -9L7 -5.6L8.8 2L3.9 8.1L-3.9 8.1L-8.8 2L-7 -5.6Z" fill="#297EA6"></path></g><g transform="translate(204 133)"><path d="M0 -11L8.6 -6.9L10.7 2.4L4.8 9.9L-4.8 9.9L-10.7 2.4L-8.6 -6.9Z" fill="#297EA6"></path></g><g transform="translate(795 219)"><path d="M0 -7L5.5 -4.4L6.8 1.6L3 6.3L-3 6.3L-6.8 1.6L-5.5 -4.4Z" fill="#297EA6"></path></g><g transform="translate(690 301)"><path d="M0 -5L3.9 -3.1L4.9 1.1L2.2 4.5L-2.2 4.5L-4.9 1.1L-3.9 -3.1Z" fill="#297EA6"></path></g><g transform="translate(803 311)"><path d="M0 -8L6.3 -5L7.8 1.8L3.5 7.2L-3.5 7.2L-7.8 1.8L-6.3 -5Z" fill="#297EA6"></path></g><g transform="translate(146 515)"><path d="M0 -4L3.1 -2.5L3.9 0.9L1.7 3.6L-1.7 3.6L-3.9 0.9L-3.1 -2.5Z" fill="#297EA6"></path></g><g transform="translate(898 588)"><path d="M0 -8L6.3 -5L7.8 1.8L3.5 7.2L-3.5 7.2L-7.8 1.8L-6.3 -5Z" fill="#297EA6"></path></g><g transform="translate(641 65)"><path d="M0 -9L7 -5.6L8.8 2L3.9 8.1L-3.9 8.1L-8.8 2L-7 -5.6Z" fill="#297EA6"></path></g><g transform="translate(869 555)"><path d="M0 -9L7 -5.6L8.8 2L3.9 8.1L-3.9 8.1L-8.8 2L-7 -5.6Z" fill="#297EA6"></path></g><g transform="translate(831 568)"><path d="M0 -8L6.3 -5L7.8 1.8L3.5 7.2L-3.5 7.2L-7.8 1.8L-6.3 -5Z" fill="#297EA6"></path></g><g transform="translate(898 328)"><path d="M0 -10L7.8 -6.2L9.7 2.2L4.3 9L-4.3 9L-9.7 2.2L-7.8 -6.2Z" fill="#297EA6"></path></g><g transform="translate(635 482)"><path d="M0 -2L1.6 -1.2L1.9 0.4L0.9 1.8L-0.9 1.8L-1.9 0.4L-1.6 -1.2Z" fill="#297EA6"></path></g><g transform="translate(607 292)"><path d="M0 -3L2.3 -1.9L2.9 0.7L1.3 2.7L-1.3 2.7L-2.9 0.7L-2.3 -1.9Z" fill="#297EA6"></path></g><g transform="translate(203 523)"><path d="M0 -12L9.4 -7.5L11.7 2.7L5.2 10.8L-5.2 10.8L-11.7 2.7L-9.4 -7.5Z" fill="#297EA6"></path></g><g transform="translate(122 470)"><path d="M0 -8L6.3 -5L7.8 1.8L3.5 7.2L-3.5 7.2L-7.8 1.8L-6.3 -5Z" fill="#297EA6"></path></g><g transform="translate(683 7)"><path d="M0 -1L0.8 -0.6L1 0.2L0.4 0.9L-0.4 0.9L-1 0.2L-0.8 -0.6Z" fill="#297EA6"></path></g><g transform="translate(527 342)"><path d="M0 -7L5.5 -4.4L6.8 1.6L3 6.3L-3 6.3L-6.8 1.6L-5.5 -4.4Z" fill="#297EA6"></path></g><g transform="translate(308 267)"><path d="M0 -6L4.7 -3.7L5.8 1.3L2.6 5.4L-2.6 5.4L-5.8 1.3L-4.7 -3.7Z" fill="#297EA6"></path></g><g transform="translate(259 350)"><path d="M0 -9L7 -5.6L8.8 2L3.9 8.1L-3.9 8.1L-8.8 2L-7 -5.6Z" fill="#297EA6"></path></g><g transform="translate(774 201)"><path d="M0 -10L7.8 -6.2L9.7 2.2L4.3 9L-4.3 9L-9.7 2.2L-7.8 -6.2Z" fill="#297EA6"></path></g><g transform="translate(832 532)"><path d="M0 -4L3.1 -2.5L3.9 0.9L1.7 3.6L-1.7 3.6L-3.9 0.9L-3.1 -2.5Z" fill="#297EA6"></path></g><g transform="translate(891 471)"><path d="M0 -5L3.9 -3.1L4.9 1.1L2.2 4.5L-2.2 4.5L-4.9 1.1L-3.9 -3.1Z" fill="#297EA6"></path></g><g transform="translate(444 576)"><path d="M0 -5L3.9 -3.1L4.9 1.1L2.2 4.5L-2.2 4.5L-4.9 1.1L-3.9 -3.1Z" fill="#297EA6"></path></g><g transform="translate(65 342)"><path d="M0 -1L0.8 -0.6L1 0.2L0.4 0.9L-0.4 0.9L-1 0.2L-0.8 -0.6Z" fill="#297EA6"></path></g><g transform="translate(608 550)"><path d="M0 -11L8.6 -6.9L10.7 2.4L4.8 9.9L-4.8 9.9L-10.7 2.4L-8.6 -6.9Z" fill="#297EA6"></path></g><g transform="translate(25 486)"><path d="M0 -5L3.9 -3.1L4.9 1.1L2.2 4.5L-2.2 4.5L-4.9 1.1L-3.9 -3.1Z" fill="#297EA6"></path></g><g transform="translate(323 175)"><path d="M0 -10L7.8 -6.2L9.7 2.2L4.3 9L-4.3 9L-9.7 2.2L-7.8 -6.2Z" fill="#297EA6"></path></g><g transform="translate(419 343)"><path d="M0 -11L8.6 -6.9L10.7 2.4L4.8 9.9L-4.8 9.9L-10.7 2.4L-8.6 -6.9Z" fill="#297EA6"></path></g><g transform="translate(147 207)"><path d="M0 -6L4.7 -3.7L5.8 1.3L2.6 5.4L-2.6 5.4L-5.8 1.3L-4.7 -3.7Z" fill="#297EA6"></path></g><g transform="translate(579 509)"><path d="M0 -5L3.9 -3.1L4.9 1.1L2.2 4.5L-2.2 4.5L-4.9 1.1L-3.9 -3.1Z" fill="#297EA6"></path></g><g transform="translate(876 310)"><path d="M0 -12L9.4 -7.5L11.7 2.7L5.2 10.8L-5.2 10.8L-11.7 2.7L-9.4 -7.5Z" fill="#297EA6"></path></g><g transform="translate(576 431)"><path d="M0 -2L1.6 -1.2L1.9 0.4L0.9 1.8L-0.9 1.8L-1.9 0.4L-1.6 -1.2Z" fill="#297EA6"></path></g><g transform="translate(471 480)"><path d="M0 -5L3.9 -3.1L4.9 1.1L2.2 4.5L-2.2 4.5L-4.9 1.1L-3.9 -3.1Z" fill="#297EA6"></path></g><g transform="translate(77 109)"><path d="M0 -3L2.3 -1.9L2.9 0.7L1.3 2.7L-1.3 2.7L-2.9 0.7L-2.3 -1.9Z" fill="#297EA6"></path></g><g transform="translate(482 374)"><path d="M0 -3L2.3 -1.9L2.9 0.7L1.3 2.7L-1.3 2.7L-2.9 0.7L-2.3 -1.9Z" fill="#297EA6"></path></g><g transform="translate(742 404)"><path d="M0 -5L3.9 -3.1L4.9 1.1L2.2 4.5L-2.2 4.5L-4.9 1.1L-3.9 -3.1Z" fill="#297EA6"></path></g><g transform="translate(418 471)"><path d="M0 -1L0.8 -0.6L1 0.2L0.4 0.9L-0.4 0.9L-1 0.2L-0.8 -0.6Z" fill="#297EA6"></path></g><g transform="translate(343 226)"><path d="M0 -1L0.8 -0.6L1 0.2L0.4 0.9L-0.4 0.9L-1 0.2L-0.8 -0.6Z" fill="#297EA6"></path></g><g transform="translate(896 92)"><path d="M0 -10L7.8 -6.2L9.7 2.2L4.3 9L-4.3 9L-9.7 2.2L-7.8 -6.2Z" fill="#297EA6"></path></g><g transform="translate(443 124)"><path d="M0 -11L8.6 -6.9L10.7 2.4L4.8 9.9L-4.8 9.9L-10.7 2.4L-8.6 -6.9Z" fill="#297EA6"></path></g><g transform="translate(737 297)"><path d="M0 -12L9.4 -7.5L11.7 2.7L5.2 10.8L-5.2 10.8L-11.7 2.7L-9.4 -7.5Z" fill="#297EA6"></path></g><g transform="translate(611 377)"><path d="M0 -9L7 -5.6L8.8 2L3.9 8.1L-3.9 8.1L-8.8 2L-7 -5.6Z" fill="#297EA6"></path></g><g transform="translate(896 367)"><path d="M0 -11L8.6 -6.9L10.7 2.4L4.8 9.9L-4.8 9.9L-10.7 2.4L-8.6 -6.9Z" fill="#297EA6"></path></g><g transform="translate(726 375)"><path d="M0 -10L7.8 -6.2L9.7 2.2L4.3 9L-4.3 9L-9.7 2.2L-7.8 -6.2Z" fill="#297EA6"></path></g><g transform="translate(343 331)"><path d="M0 -10L7.8 -6.2L9.7 2.2L4.3 9L-4.3 9L-9.7 2.2L-7.8 -6.2Z" fill="#297EA6"></path></g><g transform="translate(289 373)"><path d="M0 -9L7 -5.6L8.8 2L3.9 8.1L-3.9 8.1L-8.8 2L-7 -5.6Z" fill="#297EA6"></path></g><g transform="translate(177 517)"><path d="M0 -12L9.4 -7.5L11.7 2.7L5.2 10.8L-5.2 10.8L-11.7 2.7L-9.4 -7.5Z" fill="#297EA6"></path></g><g transform="translate(250 411)"><path d="M0 -5L3.9 -3.1L4.9 1.1L2.2 4.5L-2.2 4.5L-4.9 1.1L-3.9 -3.1Z" fill="#297EA6"></path></g><g transform="translate(7 234)"><path d="M0 -4L3.1 -2.5L3.9 0.9L1.7 3.6L-1.7 3.6L-3.9 0.9L-3.1 -2.5Z" fill="#297EA6"></path></g><g transform="translate(258 311)"><path d="M0 -9L7 -5.6L8.8 2L3.9 8.1L-3.9 8.1L-8.8 2L-7 -5.6Z" fill="#297EA6"></path></g><g transform="translate(40 42)"><path d="M0 -9L7 -5.6L8.8 2L3.9 8.1L-3.9 8.1L-8.8 2L-7 -5.6Z" fill="#297EA6"></path></g><g transform="translate(34 166)"><path d="M0 -11L8.6 -6.9L10.7 2.4L4.8 9.9L-4.8 9.9L-10.7 2.4L-8.6 -6.9Z" fill="#297EA6"></path></g><g transform="translate(499 582)"><path d="M0 -3L2.3 -1.9L2.9 0.7L1.3 2.7L-1.3 2.7L-2.9 0.7L-2.3 -1.9Z" fill="#297EA6"></path></g><g transform="translate(51 560)"><path d="M0 -4L3.1 -2.5L3.9 0.9L1.7 3.6L-1.7 3.6L-3.9 0.9L-3.1 -2.5Z" fill="#297EA6"></path></g><g transform="translate(606 124)"><path d="M0 -7L5.5 -4.4L6.8 1.6L3 6.3L-3 6.3L-6.8 1.6L-5.5 -4.4Z" fill="#297EA6"></path></g><g transform="translate(555 287)"><path d="M0 -12L9.4 -7.5L11.7 2.7L5.2 10.8L-5.2 10.8L-11.7 2.7L-9.4 -7.5Z" fill="#297EA6"></path></g><g transform="translate(227 48)"><path d="M0 -12L9.4 -7.5L11.7 2.7L5.2 10.8L-5.2 10.8L-11.7 2.7L-9.4 -7.5Z" fill="#297EA6"></path></g><g transform="translate(222 272)"><path d="M0 -10L7.8 -6.2L9.7 2.2L4.3 9L-4.3 9L-9.7 2.2L-7.8 -6.2Z" fill="#297EA6"></path></g><g transform="translate(86 405)"><path d="M0 -1L0.8 -0.6L1 0.2L0.4 0.9L-0.4 0.9L-1 0.2L-0.8 -0.6Z" fill="#297EA6"></path></g><g transform="translate(783 123)"><path d="M0 -7L5.5 -4.4L6.8 1.6L3 6.3L-3 6.3L-6.8 1.6L-5.5 -4.4Z" fill="#297EA6"></path></g><g transform="translate(346 393)"><path d="M0 -9L7 -5.6L8.8 2L3.9 8.1L-3.9 8.1L-8.8 2L-7 -5.6Z" fill="#297EA6"></path></g><g transform="translate(62 372)"><path d="M0 -9L7 -5.6L8.8 2L3.9 8.1L-3.9 8.1L-8.8 2L-7 -5.6Z" fill="#297EA6"></path></g><g transform="translate(92 273)"><path d="M0 -5L3.9 -3.1L4.9 1.1L2.2 4.5L-2.2 4.5L-4.9 1.1L-3.9 -3.1Z" fill="#297EA6"></path></g><g transform="translate(894 439)"><path d="M0 -4L3.1 -2.5L3.9 0.9L1.7 3.6L-1.7 3.6L-3.9 0.9L-3.1 -2.5Z" fill="#297EA6"></path></g><g transform="translate(203 598)"><path d="M0 -4L3.1 -2.5L3.9 0.9L1.7 3.6L-1.7 3.6L-3.9 0.9L-3.1 -2.5Z" fill="#297EA6"></path></g><g transform="translate(601 22)"><path d="M0 -2L1.6 -1.2L1.9 0.4L0.9 1.8L-0.9 1.8L-1.9 0.4L-1.6 -1.2Z" fill="#297EA6"></path></g><g transform="translate(17 551)"><path d="M0 -8L6.3 -5L7.8 1.8L3.5 7.2L-3.5 7.2L-7.8 1.8L-6.3 -5Z" fill="#297EA6"></path></g><g transform="translate(149 597)"><path d="M0 -6L4.7 -3.7L5.8 1.3L2.6 5.4L-2.6 5.4L-5.8 1.3L-4.7 -3.7Z" fill="#297EA6"></path></g><g transform="translate(703 494)"><path d="M0 -12L9.4 -7.5L11.7 2.7L5.2 10.8L-5.2 10.8L-11.7 2.7L-9.4 -7.5Z" fill="#297EA6"></path></g><g transform="translate(211 469)"><path d="M0 -6L4.7 -3.7L5.8 1.3L2.6 5.4L-2.6 5.4L-5.8 1.3L-4.7 -3.7Z" fill="#297EA6"></path></g><g transform="translate(446 263)"><path d="M0 -6L4.7 -3.7L5.8 1.3L2.6 5.4L-2.6 5.4L-5.8 1.3L-4.7 -3.7Z" fill="#297EA6"></path></g><g transform="translate(157 96)"><path d="M0 -1L0.8 -0.6L1 0.2L0.4 0.9L-0.4 0.9L-1 0.2L-0.8 -0.6Z" fill="#297EA6"></path></g><g transform="translate(413 59)"><path d="M0 -10L7.8 -6.2L9.7 2.2L4.3 9L-4.3 9L-9.7 2.2L-7.8 -6.2Z" fill="#297EA6"></path></g><g transform="translate(532 549)"><path d="M0 -1L0.8 -0.6L1 0.2L0.4 0.9L-0.4 0.9L-1 0.2L-0.8 -0.6Z" fill="#297EA6"></path></g><g transform="translate(133 233)"><path d="M0 -11L8.6 -6.9L10.7 2.4L4.8 9.9L-4.8 9.9L-10.7 2.4L-8.6 -6.9Z" fill="#297EA6"></path></g><g transform="translate(427 2)"><path d="M0 -3L2.3 -1.9L2.9 0.7L1.3 2.7L-1.3 2.7L-2.9 0.7L-2.3 -1.9Z" fill="#297EA6"></path></g><g transform="translate(807 96)"><path d="M0 -5L3.9 -3.1L4.9 1.1L2.2 4.5L-2.2 4.5L-4.9 1.1L-3.9 -3.1Z" fill="#297EA6"></path></g><g transform="translate(847 309)"><path d="M0 -5L3.9 -3.1L4.9 1.1L2.2 4.5L-2.2 4.5L-4.9 1.1L-3.9 -3.1Z" fill="#297EA6"></path></g><g transform="translate(662 594)"><path d="M0 -9L7 -5.6L8.8 2L3.9 8.1L-3.9 8.1L-8.8 2L-7 -5.6Z" fill="#297EA6"></path></g><g transform="translate(781 21)"><path d="M0 -3L2.3 -1.9L2.9 0.7L1.3 2.7L-1.3 2.7L-2.9 0.7L-2.3 -1.9Z" fill="#297EA6"></path></g><g transform="translate(61 144)"><path d="M0 -6L4.7 -3.7L5.8 1.3L2.6 5.4L-2.6 5.4L-5.8 1.3L-4.7 -3.7Z" fill="#297EA6"></path></g><g transform="translate(54 472)"><path d="M0 -3L2.3 -1.9L2.9 0.7L1.3 2.7L-1.3 2.7L-2.9 0.7L-2.3 -1.9Z" fill="#297EA6"></path></g><g transform="translate(747 97)"><path d="M0 -7L5.5 -4.4L6.8 1.6L3 6.3L-3 6.3L-6.8 1.6L-5.5 -4.4Z" fill="#297EA6"></path></g><g transform="translate(467 547)"><path d="M0 -2L1.6 -1.2L1.9 0.4L0.9 1.8L-0.9 1.8L-1.9 0.4L-1.6 -1.2Z" fill="#297EA6"></path></g><g transform="translate(218 223)"><path d="M0 -3L2.3 -1.9L2.9 0.7L1.3 2.7L-1.3 2.7L-2.9 0.7L-2.3 -1.9Z" fill="#297EA6"></path></g><g transform="translate(56 306)"><path d="M0 -3L2.3 -1.9L2.9 0.7L1.3 2.7L-1.3 2.7L-2.9 0.7L-2.3 -1.9Z" fill="#297EA6"></path></g><g transform="translate(612 47)"><path d="M0 -3L2.3 -1.9L2.9 0.7L1.3 2.7L-1.3 2.7L-2.9 0.7L-2.3 -1.9Z" fill="#297EA6"></path></g><g transform="translate(730 581)"><path d="M0 -4L3.1 -2.5L3.9 0.9L1.7 3.6L-1.7 3.6L-3.9 0.9L-3.1 -2.5Z" fill="#297EA6"></path></g><g transform="translate(722 80)"><path d="M0 -8L6.3 -5L7.8 1.8L3.5 7.2L-3.5 7.2L-7.8 1.8L-6.3 -5Z" fill="#297EA6"></path></g><g transform="translate(898 506)"><path d="M0 -9L7 -5.6L8.8 2L3.9 8.1L-3.9 8.1L-8.8 2L-7 -5.6Z" fill="#297EA6"></path></g><g transform="translate(877 262)"><path d="M0 -4L3.1 -2.5L3.9 0.9L1.7 3.6L-1.7 3.6L-3.9 0.9L-3.1 -2.5Z" fill="#297EA6"></path></g><g transform="translate(3 349)"><path d="M0 -4L3.1 -2.5L3.9 0.9L1.7 3.6L-1.7 3.6L-3.9 0.9L-3.1 -2.5Z" fill="#297EA6"></path></g><g transform="translate(185 545)"><path d="M0 -12L9.4 -7.5L11.7 2.7L5.2 10.8L-5.2 10.8L-11.7 2.7L-9.4 -7.5Z" fill="#297EA6"></path></g><g transform="translate(319 12)"><path d="M0 -10L7.8 -6.2L9.7 2.2L4.3 9L-4.3 9L-9.7 2.2L-7.8 -6.2Z" fill="#297EA6"></path></g><g transform="translate(500 42)"><path d="M0 -11L8.6 -6.9L10.7 2.4L4.8 9.9L-4.8 9.9L-10.7 2.4L-8.6 -6.9Z" fill="#297EA6"></path></g><g transform="translate(812 599)"><path d="M0 -6L4.7 -3.7L5.8 1.3L2.6 5.4L-2.6 5.4L-5.8 1.3L-4.7 -3.7Z" fill="#297EA6"></path></g><g transform="translate(894 149)"><path d="M0 -9L7 -5.6L8.8 2L3.9 8.1L-3.9 8.1L-8.8 2L-7 -5.6Z" fill="#297EA6"></path></g><g transform="translate(797 251)"><path d="M0 -7L5.5 -4.4L6.8 1.6L3 6.3L-3 6.3L-6.8 1.6L-5.5 -4.4Z" fill="#297EA6"></path></g><g transform="translate(539 508)"><path d="M0 -3L2.3 -1.9L2.9 0.7L1.3 2.7L-1.3 2.7L-2.9 0.7L-2.3 -1.9Z" fill="#297EA6"></path></g><g transform="translate(726 198)"><path d="M0 -1L0.8 -0.6L1 0.2L0.4 0.9L-0.4 0.9L-1 0.2L-0.8 -0.6Z" fill="#297EA6"></path></g><g transform="translate(702 112)"><path d="M0 -6L4.7 -3.7L5.8 1.3L2.6 5.4L-2.6 5.4L-5.8 1.3L-4.7 -3.7Z" fill="#297EA6"></path></g><g transform="translate(769 283)"><path d="M0 -11L8.6 -6.9L10.7 2.4L4.8 9.9L-4.8 9.9L-10.7 2.4L-8.6 -6.9Z" fill="#297EA6"></path></g><g transform="translate(547 189)"><path d="M0 -5L3.9 -3.1L4.9 1.1L2.2 4.5L-2.2 4.5L-4.9 1.1L-3.9 -3.1Z" fill="#297EA6"></path></g><g transform="translate(4 592)"><path d="M0 -10L7.8 -6.2L9.7 2.2L4.3 9L-4.3 9L-9.7 2.2L-7.8 -6.2Z" fill="#297EA6"></path></g><g transform="translate(377 1)"><path d="M0 -8L6.3 -5L7.8 1.8L3.5 7.2L-3.5 7.2L-7.8 1.8L-6.3 -5Z" fill="#297EA6"></path></g><g transform="translate(385 88)"><path d="M0 -9L7 -5.6L8.8 2L3.9 8.1L-3.9 8.1L-8.8 2L-7 -5.6Z" fill="#297EA6"></path></g><g transform="translate(275 173)"><path d="M0 -4L3.1 -2.5L3.9 0.9L1.7 3.6L-1.7 3.6L-3.9 0.9L-3.1 -2.5Z" fill="#297EA6"></path></g><g transform="translate(469 321)"><path d="M0 -10L7.8 -6.2L9.7 2.2L4.3 9L-4.3 9L-9.7 2.2L-7.8 -6.2Z" fill="#297EA6"></path></g><g transform="translate(266 515)"><path d="M0 -5L3.9 -3.1L4.9 1.1L2.2 4.5L-2.2 4.5L-4.9 1.1L-3.9 -3.1Z" fill="#297EA6"></path></g><g transform="translate(243 437)"><path d="M0 -4L3.1 -2.5L3.9 0.9L1.7 3.6L-1.7 3.6L-3.9 0.9L-3.1 -2.5Z" fill="#297EA6"></path></g><g transform="translate(662 292)"><path d="M0 -12L9.4 -7.5L11.7 2.7L5.2 10.8L-5.2 10.8L-11.7 2.7L-9.4 -7.5Z" fill="#297EA6"></path></g><g transform="translate(103 67)"><path d="M0 -3L2.3 -1.9L2.9 0.7L1.3 2.7L-1.3 2.7L-2.9 0.7L-2.3 -1.9Z" fill="#297EA6"></path></g><g transform="translate(637 211)"><path d="M0 -12L9.4 -7.5L11.7 2.7L5.2 10.8L-5.2 10.8L-11.7 2.7L-9.4 -7.5Z" fill="#297EA6"></path></g><g transform="translate(30 67)"><path d="M0 -4L3.1 -2.5L3.9 0.9L1.7 3.6L-1.7 3.6L-3.9 0.9L-3.1 -2.5Z" fill="#297EA6"></path></g><g transform="translate(347 498)"><path d="M0 -6L4.7 -3.7L5.8 1.3L2.6 5.4L-2.6 5.4L-5.8 1.3L-4.7 -3.7Z" fill="#297EA6"></path></g><g transform="translate(113 206)"><path d="M0 -9L7 -5.6L8.8 2L3.9 8.1L-3.9 8.1L-8.8 2L-7 -5.6Z" fill="#297EA6"></path></g><g transform="translate(858 199)"><path d="M0 -2L1.6 -1.2L1.9 0.4L0.9 1.8L-0.9 1.8L-1.9 0.4L-1.6 -1.2Z" fill="#297EA6"></path></g><g transform="translate(431 372)"><path d="M0 -4L3.1 -2.5L3.9 0.9L1.7 3.6L-1.7 3.6L-3.9 0.9L-3.1 -2.5Z" fill="#297EA6"></path></g><g transform="translate(666 415)"><path d="M0 -5L3.9 -3.1L4.9 1.1L2.2 4.5L-2.2 4.5L-4.9 1.1L-3.9 -3.1Z" fill="#297EA6"></path></g><g transform="translate(178 166)"><path d="M0 -6L4.7 -3.7L5.8 1.3L2.6 5.4L-2.6 5.4L-5.8 1.3L-4.7 -3.7Z" fill="#297EA6"></path></g><g transform="translate(508 537)"><path d="M0 -11L8.6 -6.9L10.7 2.4L4.8 9.9L-4.8 9.9L-10.7 2.4L-8.6 -6.9Z" fill="#297EA6"></path></g><g transform="translate(100 233)"><path d="M0 -7L5.5 -4.4L6.8 1.6L3 6.3L-3 6.3L-6.8 1.6L-5.5 -4.4Z" fill="#297EA6"></path></g><g transform="translate(47 508)"><path d="M0 -6L4.7 -3.7L5.8 1.3L2.6 5.4L-2.6 5.4L-5.8 1.3L-4.7 -3.7Z" fill="#297EA6"></path></g><g transform="translate(460 427)"><path d="M0 -2L1.6 -1.2L1.9 0.4L0.9 1.8L-0.9 1.8L-1.9 0.4L-1.6 -1.2Z" fill="#297EA6"></path></g><g transform="translate(758 41)"><path d="M0 -7L5.5 -4.4L6.8 1.6L3 6.3L-3 6.3L-6.8 1.6L-5.5 -4.4Z" fill="#297EA6"></path></g><g transform="translate(871 169)"><path d="M0 -6L4.7 -3.7L5.8 1.3L2.6 5.4L-2.6 5.4L-5.8 1.3L-4.7 -3.7Z" fill="#297EA6"></path></g><g transform="translate(674 551)"><path d="M0 -10L7.8 -6.2L9.7 2.2L4.3 9L-4.3 9L-9.7 2.2L-7.8 -6.2Z" fill="#297EA6"></path></g><g transform="translate(482 246)"><path d="M0 -11L8.6 -6.9L10.7 2.4L4.8 9.9L-4.8 9.9L-10.7 2.4L-8.6 -6.9Z" fill="#297EA6"></path></g><g transform="translate(376 303)"><path d="M0 -7L5.5 -4.4L6.8 1.6L3 6.3L-3 6.3L-6.8 1.6L-5.5 -4.4Z" fill="#297EA6"></path></g><g transform="translate(374 432)"><path d="M0 -10L7.8 -6.2L9.7 2.2L4.3 9L-4.3 9L-9.7 2.2L-7.8 -6.2Z" fill="#297EA6"></path></g><g transform="translate(471 130)"><path d="M0 -10L7.8 -6.2L9.7 2.2L4.3 9L-4.3 9L-9.7 2.2L-7.8 -6.2Z" fill="#297EA6"></path></g><g transform="translate(169 4)"><path d="M0 -9L7 -5.6L8.8 2L3.9 8.1L-3.9 8.1L-8.8 2L-7 -5.6Z" fill="#297EA6"></path></g><g transform="translate(185 40)"><path d="M0 -3L2.3 -1.9L2.9 0.7L1.3 2.7L-1.3 2.7L-2.9 0.7L-2.3 -1.9Z" fill="#297EA6"></path></g><g transform="translate(337 463)"><path d="M0 -6L4.7 -3.7L5.8 1.3L2.6 5.4L-2.6 5.4L-5.8 1.3L-4.7 -3.7Z" fill="#297EA6"></path></g><g transform="translate(480 451)"><path d="M0 -6L4.7 -3.7L5.8 1.3L2.6 5.4L-2.6 5.4L-5.8 1.3L-4.7 -3.7Z" fill="#297EA6"></path></g><g transform="translate(161 234)"><path d="M0 -4L3.1 -2.5L3.9 0.9L1.7 3.6L-1.7 3.6L-3.9 0.9L-3.1 -2.5Z" fill="#297EA6"></path></g><g transform="translate(428 219)"><path d="M0 -6L4.7 -3.7L5.8 1.3L2.6 5.4L-2.6 5.4L-5.8 1.3L-4.7 -3.7Z" fill="#297EA6"></path></g><g transform="translate(773 558)"><path d="M0 -3L2.3 -1.9L2.9 0.7L1.3 2.7L-1.3 2.7L-2.9 0.7L-2.3 -1.9Z" fill="#297EA6"></path></g><g transform="translate(639 433)"><path d="M0 -5L3.9 -3.1L4.9 1.1L2.2 4.5L-2.2 4.5L-4.9 1.1L-3.9 -3.1Z" fill="#297EA6"></path></g><g transform="translate(265 570)"><path d="M0 -2L1.6 -1.2L1.9 0.4L0.9 1.8L-0.9 1.8L-1.9 0.4L-1.6 -1.2Z" fill="#297EA6"></path></g><g transform="translate(260 386)"><path d="M0 -3L2.3 -1.9L2.9 0.7L1.3 2.7L-1.3 2.7L-2.9 0.7L-2.3 -1.9Z" fill="#297EA6"></path></g><g transform="translate(579 561)"><path d="M0 -1L0.8 -0.6L1 0.2L0.4 0.9L-0.4 0.9L-1 0.2L-0.8 -0.6Z" fill="#297EA6"></path></g><g transform="translate(311 427)"><path d="M0 -6L4.7 -3.7L5.8 1.3L2.6 5.4L-2.6 5.4L-5.8 1.3L-4.7 -3.7Z" fill="#297EA6"></path></g><g transform="translate(570 205)"><path d="M0 -5L3.9 -3.1L4.9 1.1L2.2 4.5L-2.2 4.5L-4.9 1.1L-3.9 -3.1Z" fill="#297EA6"></path></g><g transform="translate(305 597)"><path d="M0 -10L7.8 -6.2L9.7 2.2L4.3 9L-4.3 9L-9.7 2.2L-7.8 -6.2Z" fill="#297EA6"></path></g><g transform="translate(784 595)"><path d="M0 -8L6.3 -5L7.8 1.8L3.5 7.2L-3.5 7.2L-7.8 1.8L-6.3 -5Z" fill="#297EA6"></path></g><g transform="translate(659 249)"><path d="M0 -7L5.5 -4.4L6.8 1.6L3 6.3L-3 6.3L-6.8 1.6L-5.5 -4.4Z" fill="#297EA6"></path></g><g transform="translate(223 544)"><path d="M0 -12L9.4 -7.5L11.7 2.7L5.2 10.8L-5.2 10.8L-11.7 2.7L-9.4 -7.5Z" fill="#297EA6"></path></g><g transform="translate(843 595)"><path d="M0 -5L3.9 -3.1L4.9 1.1L2.2 4.5L-2.2 4.5L-4.9 1.1L-3.9 -3.1Z" fill="#297EA6"></path></g><g transform="translate(872 425)"><path d="M0 -9L7 -5.6L8.8 2L3.9 8.1L-3.9 8.1L-8.8 2L-7 -5.6Z" fill="#297EA6"></path></g><g transform="translate(90 3)"><path d="M0 -12L9.4 -7.5L11.7 2.7L5.2 10.8L-5.2 10.8L-11.7 2.7L-9.4 -7.5Z" fill="#297EA6"></path></g><g transform="translate(548 5)"><path d="M0 -9L7 -5.6L8.8 2L3.9 8.1L-3.9 8.1L-8.8 2L-7 -5.6Z" fill="#297EA6"></path></g><g transform="translate(510 403)"><path d="M0 -3L2.3 -1.9L2.9 0.7L1.3 2.7L-1.3 2.7L-2.9 0.7L-2.3 -1.9Z" fill="#297EA6"></path></g><g transform="translate(722 544)"><path d="M0 -8L6.3 -5L7.8 1.8L3.5 7.2L-3.5 7.2L-7.8 1.8L-6.3 -5Z" fill="#297EA6"></path></g><g transform="translate(420 397)"><path d="M0 -9L7 -5.6L8.8 2L3.9 8.1L-3.9 8.1L-8.8 2L-7 -5.6Z" fill="#297EA6"></path></g><g transform="translate(110 122)"><path d="M0 -6L4.7 -3.7L5.8 1.3L2.6 5.4L-2.6 5.4L-5.8 1.3L-4.7 -3.7Z" fill="#297EA6"></path></g><g transform="translate(895 121)"><path d="M0 -1L0.8 -0.6L1 0.2L0.4 0.9L-0.4 0.9L-1 0.2L-0.8 -0.6Z" fill="#297EA6"></path></g><g transform="translate(322 118)"><path d="M0 -5L3.9 -3.1L4.9 1.1L2.2 4.5L-2.2 4.5L-4.9 1.1L-3.9 -3.1Z" fill="#297EA6"></path></g><g transform="translate(234 591)"><path d="M0 -9L7 -5.6L8.8 2L3.9 8.1L-3.9 8.1L-8.8 2L-7 -5.6Z" fill="#297EA6"></path></g><g transform="translate(731 36)"><path d="M0 -3L2.3 -1.9L2.9 0.7L1.3 2.7L-1.3 2.7L-2.9 0.7L-2.3 -1.9Z" fill="#297EA6"></path></g><g transform="translate(132 185)"><path d="M0 -10L7.8 -6.2L9.7 2.2L4.3 9L-4.3 9L-9.7 2.2L-7.8 -6.2Z" fill="#297EA6"></path></g><g transform="translate(147 456)"><path d="M0 -8L6.3 -5L7.8 1.8L3.5 7.2L-3.5 7.2L-7.8 1.8L-6.3 -5Z" fill="#297EA6"></path></g><g transform="translate(573 331)"><path d="M0 -5L3.9 -3.1L4.9 1.1L2.2 4.5L-2.2 4.5L-4.9 1.1L-3.9 -3.1Z" fill="#297EA6"></path></g><g transform="translate(825 242)"><path d="M0 -12L9.4 -7.5L11.7 2.7L5.2 10.8L-5.2 10.8L-11.7 2.7L-9.4 -7.5Z" fill="#297EA6"></path></g><g transform="translate(584 46)"><path d="M0 -1L0.8 -0.6L1 0.2L0.4 0.9L-0.4 0.9L-1 0.2L-0.8 -0.6Z" fill="#297EA6"></path></g><g transform="translate(363 140)"><path d="M0 -12L9.4 -7.5L11.7 2.7L5.2 10.8L-5.2 10.8L-11.7 2.7L-9.4 -7.5Z" fill="#297EA6"></path></g><g transform="translate(664 137)"><path d="M0 -10L7.8 -6.2L9.7 2.2L4.3 9L-4.3 9L-9.7 2.2L-7.8 -6.2Z" fill="#297EA6"></path></g><g transform="translate(384 251)"><path d="M0 -1L0.8 -0.6L1 0.2L0.4 0.9L-0.4 0.9L-1 0.2L-0.8 -0.6Z" fill="#297EA6"></path></g><g transform="translate(2 64)"><path d="M0 -2L1.6 -1.2L1.9 0.4L0.9 1.8L-0.9 1.8L-1.9 0.4L-1.6 -1.2Z" fill="#297EA6"></path></g><g transform="translate(755 151)"><path d="M0 -3L2.3 -1.9L2.9 0.7L1.3 2.7L-1.3 2.7L-2.9 0.7L-2.3 -1.9Z" fill="#297EA6"></path></g><g transform="translate(728 150)"><path d="M0 -10L7.8 -6.2L9.7 2.2L4.3 9L-4.3 9L-9.7 2.2L-7.8 -6.2Z" fill="#297EA6"></path></g><g transform="translate(350 170)"><path d="M0 -10L7.8 -6.2L9.7 2.2L4.3 9L-4.3 9L-9.7 2.2L-7.8 -6.2Z" fill="#297EA6"></path></g><g transform="translate(341 275)"><path d="M0 -1L0.8 -0.6L1 0.2L0.4 0.9L-0.4 0.9L-1 0.2L-0.8 -0.6Z" fill="#297EA6"></path></g><g transform="translate(626 337)"><path d="M0 -3L2.3 -1.9L2.9 0.7L1.3 2.7L-1.3 2.7L-2.9 0.7L-2.3 -1.9Z" fill="#297EA6"></path></g><g transform="translate(832 146)"><path d="M0 -1L0.8 -0.6L1 0.2L0.4 0.9L-0.4 0.9L-1 0.2L-0.8 -0.6Z" fill="#297EA6"></path></g><g transform="translate(553 160)"><path d="M0 -11L8.6 -6.9L10.7 2.4L4.8 9.9L-4.8 9.9L-10.7 2.4L-8.6 -6.9Z" fill="#297EA6"></path></g><g transform="translate(785 477)"><path d="M0 -10L7.8 -6.2L9.7 2.2L4.3 9L-4.3 9L-9.7 2.2L-7.8 -6.2Z" fill="#297EA6"></path></g><g transform="translate(421 105)"><path d="M0 -5L3.9 -3.1L4.9 1.1L2.2 4.5L-2.2 4.5L-4.9 1.1L-3.9 -3.1Z" fill="#297EA6"></path></g><g transform="translate(362 551)"><path d="M0 -8L6.3 -5L7.8 1.8L3.5 7.2L-3.5 7.2L-7.8 1.8L-6.3 -5Z" fill="#297EA6"></path></g><g transform="translate(846 3)"><path d="M0 -12L9.4 -7.5L11.7 2.7L5.2 10.8L-5.2 10.8L-11.7 2.7L-9.4 -7.5Z" fill="#297EA6"></path></g><g transform="translate(575 598)"><path d="M0 -8L6.3 -5L7.8 1.8L3.5 7.2L-3.5 7.2L-7.8 1.8L-6.3 -5Z" fill="#297EA6"></path></g><g transform="translate(361 599)"><path d="M0 -5L3.9 -3.1L4.9 1.1L2.2 4.5L-2.2 4.5L-4.9 1.1L-3.9 -3.1Z" fill="#297EA6"></path></g><g transform="translate(651 570)"><path d="M0 -5L3.9 -3.1L4.9 1.1L2.2 4.5L-2.2 4.5L-4.9 1.1L-3.9 -3.1Z" fill="#297EA6"></path></g><g transform="translate(523 308)"><path d="M0 -9L7 -5.6L8.8 2L3.9 8.1L-3.9 8.1L-8.8 2L-7 -5.6Z" fill="#297EA6"></path></g><g transform="translate(247 283)"><path d="M0 -12L9.4 -7.5L11.7 2.7L5.2 10.8L-5.2 10.8L-11.7 2.7L-9.4 -7.5Z" fill="#297EA6"></path></g><g transform="translate(165 288)"><path d="M0 -9L7 -5.6L8.8 2L3.9 8.1L-3.9 8.1L-8.8 2L-7 -5.6Z" fill="#297EA6"></path></g><g transform="translate(378 32)"><path d="M0 -9L7 -5.6L8.8 2L3.9 8.1L-3.9 8.1L-8.8 2L-7 -5.6Z" fill="#297EA6"></path></g><g transform="translate(76 83)"><path d="M0 -7L5.5 -4.4L6.8 1.6L3 6.3L-3 6.3L-6.8 1.6L-5.5 -4.4Z" fill="#297EA6"></path></g><g transform="translate(681 165)"><path d="M0 -4L3.1 -2.5L3.9 0.9L1.7 3.6L-1.7 3.6L-3.9 0.9L-3.1 -2.5Z" fill="#297EA6"></path></g><g transform="translate(315 526)"><path d="M0 -12L9.4 -7.5L11.7 2.7L5.2 10.8L-5.2 10.8L-11.7 2.7L-9.4 -7.5Z" fill="#297EA6"></path></g><g transform="translate(107 386)"><path d="M0 -4L3.1 -2.5L3.9 0.9L1.7 3.6L-1.7 3.6L-3.9 0.9L-3.1 -2.5Z" fill="#297EA6"></path></g><g transform="translate(486 106)"><path d="M0 -5L3.9 -3.1L4.9 1.1L2.2 4.5L-2.2 4.5L-4.9 1.1L-3.9 -3.1Z" fill="#297EA6"></path></g><g transform="translate(417 306)"><path d="M0 -12L9.4 -7.5L11.7 2.7L5.2 10.8L-5.2 10.8L-11.7 2.7L-9.4 -7.5Z" fill="#297EA6"></path></g><g transform="translate(814 33)"><path d="M0 -12L9.4 -7.5L11.7 2.7L5.2 10.8L-5.2 10.8L-11.7 2.7L-9.4 -7.5Z" fill="#297EA6"></path></g><g transform="translate(188 220)"><path d="M0 -6L4.7 -3.7L5.8 1.3L2.6 5.4L-2.6 5.4L-5.8 1.3L-4.7 -3.7Z" fill="#297EA6"></path></g><g transform="translate(539 373)"><path d="M0 -10L7.8 -6.2L9.7 2.2L4.3 9L-4.3 9L-9.7 2.2L-7.8 -6.2Z" fill="#297EA6"></path></g><g transform="translate(368 338)"><path d="M0 -7L5.5 -4.4L6.8 1.6L3 6.3L-3 6.3L-6.8 1.6L-5.5 -4.4Z" fill="#297EA6"></path></g><g transform="translate(738 434)"><path d="M0 -5L3.9 -3.1L4.9 1.1L2.2 4.5L-2.2 4.5L-4.9 1.1L-3.9 -3.1Z" fill="#297EA6"></path></g><g transform="translate(657 11)"><path d="M0 -6L4.7 -3.7L5.8 1.3L2.6 5.4L-2.6 5.4L-5.8 1.3L-4.7 -3.7Z" fill="#297EA6"></path></g><g transform="translate(746 271)"><path d="M0 -2L1.6 -1.2L1.9 0.4L0.9 1.8L-0.9 1.8L-1.9 0.4L-1.6 -1.2Z" fill="#297EA6"></path></g><g transform="translate(295 119)"><path d="M0 -3L2.3 -1.9L2.9 0.7L1.3 2.7L-1.3 2.7L-2.9 0.7L-2.3 -1.9Z" fill="#297EA6"></path></g><g transform="translate(712 281)"><path d="M0 -1L0.8 -0.6L1 0.2L0.4 0.9L-0.4 0.9L-1 0.2L-0.8 -0.6Z" fill="#297EA6"></path></g><g transform="translate(387 543)"><path d="M0 -2L1.6 -1.2L1.9 0.4L0.9 1.8L-0.9 1.8L-1.9 0.4L-1.6 -1.2Z" fill="#297EA6"></path></g><g transform="translate(395 595)"><path d="M0 -8L6.3 -5L7.8 1.8L3.5 7.2L-3.5 7.2L-7.8 1.8L-6.3 -5Z" fill="#297EA6"></path></g><g transform="translate(469 38)"><path d="M0 -3L2.3 -1.9L2.9 0.7L1.3 2.7L-1.3 2.7L-2.9 0.7L-2.3 -1.9Z" fill="#297EA6"></path></g><g transform="translate(475 190)"><path d="M0 -11L8.6 -6.9L10.7 2.4L4.8 9.9L-4.8 9.9L-10.7 2.4L-8.6 -6.9Z" fill="#297EA6"></path></g><g transform="translate(88 136)"><path d="M0 -1L0.8 -0.6L1 0.2L0.4 0.9L-0.4 0.9L-1 0.2L-0.8 -0.6Z" fill="#297EA6"></path></g><g transform="translate(473 220)"><path d="M0 -11L8.6 -6.9L10.7 2.4L4.8 9.9L-4.8 9.9L-10.7 2.4L-8.6 -6.9Z" fill="#297EA6"></path></g><g transform="translate(582 458)"><path d="M0 -4L3.1 -2.5L3.9 0.9L1.7 3.6L-1.7 3.6L-3.9 0.9L-3.1 -2.5Z" fill="#297EA6"></path></g><g transform="translate(377 497)"><path d="M0 -9L7 -5.6L8.8 2L3.9 8.1L-3.9 8.1L-8.8 2L-7 -5.6Z" fill="#297EA6"></path></g><g transform="translate(137 139)"><path d="M0 -1L0.8 -0.6L1 0.2L0.4 0.9L-0.4 0.9L-1 0.2L-0.8 -0.6Z" fill="#297EA6"></path></g></g></svg>